<svg xmlns="http://www.w3.org/2000/svg" xmlns:xlink="http://www.w3.org/1999/xlink">
		<!--- payment gateway -->
		<symbol id="visa" viewBox="0 0 11.217 7.076">
			<g id="Layer_2" data-name="Layer 2">
				<g id="Layer_1-2" data-name="Layer 1">
					<g>
						<path d="M10.606,6.949H.61a.50018.50018,0,0,1-.5-.5V.627a.50018.50018,0,0,1,.5-.5h9.996a.50018.50018,0,0,1,.5.5V6.449A.50018.50018,0,0,1,10.606,6.949Z" fill="#fff"/>
						<path d="M11.217.806A.72161.72161,0,0,0,10.394,0H.823A.75678.75678,0,0,0,.221.221.78559.78559,0,0,0,0,.806V6.27a.78635.78635,0,0,0,.221.585.81967.81967,0,0,0,.602.221h9.571a.72364.72364,0,0,0,.823-.806V.806ZM10.393.127a.60229.60229,0,0,1,.679.679V6.27a.60069.60069,0,0,1-.679.679H.823a.667.667,0,0,1-.505-.191A.66006.66006,0,0,1,.127,6.27V.806A.60607.60607,0,0,1,.823.127Z" fill="#005883"/>
						<path d="M.899.441A.51033.51033,0,0,0,.538.534.61087.61087,0,0,0,.457.899V2.083H10.758V.899A.40311.40311,0,0,0,10.3.441Z" fill="#005883"/>
						<path d="M.458,6.16c0,.314.148.475.441.475H10.3a.4137.4137,0,0,0,.458-.475V4.976H.458V6.16Z" fill="#f2a62c"/>
						<path d="M3.869,2.588a.20972.20972,0,0,1-.03.127L3.097,4.009,3.05,2.431H1.862l.399.191a.324.324,0,0,1,.174.284l.11,1.676h.581L4.518,2.431H3.805a.21179.21179,0,0,1,.064.157Z" fill="#005883"/>
						<path d="M8.671,2.495l.047-.064H7.993c.025.025.034.038.034.047a.63862.63862,0,0,1-.034.081L6.937,4.485c-.027.033-.052.063-.082.097h.598l-.03-.064a.92316.92316,0,0,1,.093-.301l.127-.238h.615c.025.199.042.365.051.488l-.051.115H9l-.11-.161L8.671,2.495ZM8.23,3.678H7.789l.378-.725.063.725Z" fill="#005883"/>
						<path d="M6.397,2.321a.97946.97946,0,0,0-.598.191.48089.48089,0,0,0-.284.424.6822.6822,0,0,0,.204.505l.412.284c.148.106.221.199.221.284a.25742.25742,0,0,1-.11.208.4078.4078,0,0,1-.256.081,1.98019,1.98019,0,0,1-.755-.301v.395a1.56641,1.56641,0,0,0,.802.25.92653.92653,0,0,0,.632-.221.60109.60109,0,0,0,.284-.488.60441.60441,0,0,0-.221-.441l-.395-.284c-.131-.106-.204-.199-.204-.271,0-.165.098-.25.297-.25a1.32366,1.32366,0,0,1,.602.238l.081-.412a1.39166,1.39166,0,0,0-.712-.192Z" fill="#005883"/>
						<path d="M4.819,4.582c-.008-.089-.025-.17-.034-.255l.539-1.739.127-.157H4.675c.008.038.017.089.025.127a.699.699,0,0,1-.008.127L4.153,4.408l-.11.174Z" fill="#005883"/>
					</g>
				</g>
			</g>
		</symbol>
		<symbol id="mastercard"  viewBox="0 0 11.217 7.717">
			<g id="Layer_2" data-name="Layer 2">
				<g id="Layer_1-2" data-name="Layer 1">
					<g>
						<path d="M10.607,7.13H.611a.50018.50018,0,0,1-.5-.5V.808a.50018.50018,0,0,1,.5-.5h9.996a.50018.50018,0,0,1,.5.5V6.63A.50018.50018,0,0,1,10.607,7.13Z" fill="#242056"/>
						<path d="M11.217.987a.72161.72161,0,0,0-.823-.806H.823A.75678.75678,0,0,0,.221.402.78559.78559,0,0,0,0,.987V6.451a.78635.78635,0,0,0,.221.585.81967.81967,0,0,0,.602.221h9.571a.72364.72364,0,0,0,.823-.806V.987ZM10.394.308a.60229.60229,0,0,1,.679.679V6.451a.60069.60069,0,0,1-.679.679H.823a.667.667,0,0,1-.505-.191.66006.66006,0,0,1-.191-.488V.987A.60607.60607,0,0,1,.823.308Z" fill="#242056"/>
						<g>
							<rect x="0.225" width="10.308" height="7.717" fill="none"/>
							<g>
								<g>
									<g>
										<path d="M6.013,3.859A1.929,1.929,0,1,1,4.084,1.93,1.92882,1.92882,0,0,1,6.013,3.859Z" fill="#ed1b2e"/>
										<path d="M6.674,1.93a1.92123,1.92123,0,0,0-1.295.499,1.97663,1.97663,0,0,0-.195.204h.39a2.10962,2.10962,0,0,1,.147.204H5.037a2.01407,2.01407,0,0,0-.111.204h.906a2.019,2.019,0,0,1,.082.204H4.844a2.05053,2.05053,0,0,0-.056.204H5.97a1.96353,1.96353,0,0,1,.043.409,1.944,1.944,0,0,1-.099.613H4.844a1.80918,1.80918,0,0,0,.082.204h.906a1.81883,1.81883,0,0,1-.111.204H5.037a2.10839,2.10839,0,0,0,.147.204h.39a1.87937,1.87937,0,0,1-.195.204A1.92847,1.92847,0,1,0,6.674,1.93Z" fill="#fcb131"/>
									</g>
									<path d="M8.346,4.935a.062.062,0,1,1,.062.062A.06231.06231,0,0,1,8.346,4.935Zm.062.047a.047.047,0,1,0-.047-.047A.04695.04695,0,0,0,8.408,4.982ZM8.4,4.962H8.387V4.907H8.41a.02232.02232,0,0,1,.014.003.01748.01748,0,0,1,.007.014.015.015,0,0,1-.01.014l.01.024H8.417L8.409,4.94H8.4Zm0-.031h.007l.008-.001.003-.006-.003-.006-.008-.001H8.4Z" fill="#fcb131"/>
								</g>
								<g>
									<g>
										<path d="M3.633,4.07a.28686.28686,0,0,0-.047-.003c-.119,0-.179.041-.179.121a.07262.07262,0,0,0,.075.081C3.568,4.269,3.629,4.188,3.633,4.07Zm.152.355H3.611l.004-.082a.26416.26416,0,0,1-.22.096.19587.19587,0,0,1-.191-.217c0-.194.135-.307.368-.307a.68991.68991,0,0,1,.085.006.21144.21144,0,0,0,.008-.052c0-.053-.036-.072-.134-.072a.68259.68259,0,0,0-.222.036l.029-.179a.81961.81961,0,0,1,.251-.042c.18,0,.275.081.275.233a1.01706,1.01706,0,0,1-.017.158C3.83,4.118,3.791,4.365,3.785,4.425Z" fill="#003473"/>
										<polygon points="3.117 4.425 2.908 4.425 3.028 3.673 2.76 4.425 2.617 4.425 2.599 3.677 2.473 4.425 2.277 4.425 2.441 3.446 2.742 3.446 2.761 3.994 2.944 3.446 3.279 3.446 3.117 4.425" fill="#003473"/>
										<path d="M6.933,4.07a.28686.28686,0,0,0-.047-.003c-.119,0-.179.041-.179.121a.07262.07262,0,0,0,.075.081C6.868,4.269,6.929,4.188,6.933,4.07Zm.152.355H6.911l.004-.082a.26347.26347,0,0,1-.219.096.19531.19531,0,0,1-.191-.217c0-.194.135-.307.368-.307a.68991.68991,0,0,1,.085.006.21144.21144,0,0,0,.008-.052c0-.053-.036-.072-.134-.072a.68259.68259,0,0,0-.222.036l.029-.179a.81961.81961,0,0,1,.251-.042c.18,0,.275.081.275.233a1.01728,1.01728,0,0,1-.017.158C7.129,4.118,7.09,4.365,7.085,4.425Z" fill="#003473"/>
										<path d="M4.716,4.413a.47833.47833,0,0,1-.15.026.15276.15276,0,0,1-.165-.175,1.7998,1.7998,0,0,1,.029-.212c.012-.074.091-.543.091-.543h.208l-.024.12h.126l-.028.191H4.677c-.024.151-.059.34-.059.365,0,.041.022.059.072.059a.14438.14438,0,0,0,.056-.008Z" fill="#003473"/>
										<path d="M5.355,4.406a.68159.68159,0,0,1-.214.032.31676.31676,0,0,1-.355-.355c0-.272.155-.472.364-.472a.26548.26548,0,0,1,.281.288.87413.87413,0,0,1-.026.196H4.99c-.014.115.06.164.181.164a.48659.48659,0,0,0,.216-.05Zm-.117-.471c.001-.017.022-.142-.097-.142-.066,0-.114.051-.133.142Z" fill="#003473"/>
										<path d="M3.911,3.881a.23175.23175,0,0,0,.16.222c.085.04.098.052.098.088,0,.05-.037.072-.12.072a.60625.60625,0,0,1-.188-.031s-.027.175-.029.184a1.01353,1.01353,0,0,0,.218.024c.221,0,.323-.084.323-.266a.21843.21843,0,0,0-.148-.222c-.088-.04-.098-.049-.098-.086,0-.043.035-.065.103-.065a1.0976,1.0976,0,0,1,.151.012l.03-.185a1.33983,1.33983,0,0,0-.184-.015C3.991,3.611,3.91,3.734,3.911,3.881Z" fill="#003473"/>
										<path d="M6.373,3.632a.39637.39637,0,0,1,.187.053l.034-.212a.61961.61961,0,0,0-.23-.083.41848.41848,0,0,0-.342.184c-.122-.04-.172.041-.233.122l-.054.013a.4325.4325,0,0,0,.007-.08H5.55c-.026.246-.073.496-.109.742l-.01.054h.21c.035-.227.054-.373.066-.471l.079-.044c.012-.044.049-.059.123-.057a.86683.86683,0,0,0-.015.163c0,.26.141.422.366.422a.65479.65479,0,0,0,.185-.029l.037-.223a.406.406,0,0,1-.178.05c-.122,0-.195-.09-.195-.238C6.107,3.783,6.217,3.632,6.373,3.632Z" fill="#003473"/>
										<path d="M8.147,3.446,8.1,3.729a.263.263,0,0,0-.2-.13.32409.32409,0,0,0-.265.198,1.64368,1.64368,0,0,1-.178-.049v.001a1.0554,1.0554,0,0,0,.009-.12H7.274c-.026.246-.073.496-.109.742l-.01.054h.21c.028-.184.05-.336.066-.457.072-.065.108-.121.18-.117a.682.682,0,0,0-.051.258c0,.199.101.33.253.33a.2469.2469,0,0,0,.193-.088l-.01.074h.198l.16-.979Zm-.262.795c-.071,0-.107-.053-.107-.157,0-.156.067-.267.162-.267.072,0,.111.055.111.156C8.051,4.131,7.982,4.241,7.885,4.241Z" fill="#003473"/>
									</g>
									<g>
										<polygon points="3.178 4.367 2.968 4.367 3.088 3.615 2.82 4.367 2.677 4.367 2.66 3.619 2.534 4.367 2.338 4.367 2.501 3.388 2.803 3.388 2.811 3.994 3.014 3.388 3.34 3.388 3.178 4.367" fill="#fff"/>
										<path d="M3.693,4.012a.454.454,0,0,0-.046-.003c-.119,0-.179.041-.179.121a.07262.07262,0,0,0,.075.081C3.628,4.211,3.69,4.13,3.693,4.012Zm.153.355H3.672l.004-.082a.26419.26419,0,0,1-.22.096.19531.19531,0,0,1-.191-.217c0-.194.135-.307.368-.307a.68991.68991,0,0,1,.085.006.21811.21811,0,0,0,.008-.052c0-.053-.036-.072-.134-.072a.68231.68231,0,0,0-.222.036l.029-.179a.81961.81961,0,0,1,.251-.042c.18,0,.275.081.275.233a1.01817,1.01817,0,0,1-.017.158C3.89,4.06,3.851,4.307,3.846,4.367Z" fill="#fff"/>
										<path d="M6.655,3.415l-.034.212a.39637.39637,0,0,0-.187-.053c-.156,0-.266.151-.266.367,0,.149.074.238.195.238a.406.406,0,0,0,.178-.05l-.037.223a.65479.65479,0,0,1-.185.029c-.225,0-.366-.162-.366-.422,0-.35.194-.594.472-.594A.70793.70793,0,0,1,6.655,3.415Z" fill="#fff"/>
										<path d="M6.993,4.012a.28686.28686,0,0,0-.047-.003c-.119,0-.179.041-.179.121a.07262.07262,0,0,0,.075.081C6.928,4.211,6.989,4.13,6.993,4.012Zm.152.355H6.971l.004-.082a.2635.2635,0,0,1-.219.096.19531.19531,0,0,1-.191-.217c0-.194.135-.307.368-.307a.68991.68991,0,0,1,.085.006.21811.21811,0,0,0,.008-.052c0-.053-.036-.072-.134-.072a.68789.68789,0,0,0-.222.036l.029-.179a.81961.81961,0,0,1,.251-.042c.18,0,.275.081.275.233a1.01694,1.01694,0,0,1-.017.158C7.19,4.06,7.151,4.307,7.145,4.367Z" fill="#fff"/>
										<path d="M4.776,4.355a.47833.47833,0,0,1-.15.026.15389.15389,0,0,1-.166-.175,1.7998,1.7998,0,0,1,.029-.212c.012-.074.091-.543.091-.543h.208l-.024.12h.107l-.028.191H4.736c-.024.151-.059.34-.059.365,0,.041.022.059.072.059a.14438.14438,0,0,0,.056-.008Z" fill="#fff"/>
										<path d="M5.415,4.349a.7165.7165,0,0,1-.214.032.31676.31676,0,0,1-.355-.355c0-.272.155-.472.364-.472a.26548.26548,0,0,1,.281.288.87413.87413,0,0,1-.026.196H5.05c-.014.115.06.164.181.164a.49072.49072,0,0,0,.217-.05Zm-.117-.472c.001-.017.022-.142-.097-.142-.066,0-.114.051-.133.142Z" fill="#fff"/>
										<path d="M3.971,3.823a.23174.23174,0,0,0,.16.222c.085.04.098.052.098.088,0,.05-.037.072-.12.072a.611.611,0,0,1-.188-.031s-.027.175-.029.184a1.0133,1.0133,0,0,0,.218.024c.221,0,.323-.084.323-.266a.21844.21844,0,0,0-.148-.222c-.088-.04-.098-.049-.098-.087,0-.043.035-.065.103-.065a1.24992,1.24992,0,0,1,.15.012l.03-.185a1.34679,1.34679,0,0,0-.184-.016C4.052,3.553,3.971,3.676,3.971,3.823Z" fill="#fff"/>
										<path d="M8.254,4.367H8.056l.01-.074a.2469.2469,0,0,1-.193.088c-.152,0-.253-.131-.253-.33,0-.265.156-.488.341-.488a.23527.23527,0,0,1,.2.109l.046-.283h.207Zm-.309-.184c.098,0,.166-.111.166-.268,0-.101-.039-.156-.111-.156-.095,0-.162.111-.162.267C7.838,4.13,7.874,4.183,7.945,4.183Z" fill="#fff"/>
										<path d="M7.334,3.571c-.026.246-.073.496-.109.742l-.01.054h.209c.075-.487.093-.582.211-.57a.78435.78435,0,0,1,.08-.231c-.088-.018-.137.031-.201.126a.82862.82862,0,0,0,.013-.121Z" fill="#fff"/>
										<path d="M5.61,3.571c-.026.246-.073.496-.109.742l-.01.054h.21c.075-.487.093-.582.21-.57a.78435.78435,0,0,1,.08-.231c-.088-.018-.137.031-.201.126a.82862.82862,0,0,0,.013-.121Z" fill="#fff"/>
										<path d="M8.346,4.305a.06167.06167,0,0,1,.062-.062.062.062,0,1,1-.062.062Zm.062.047a.047.047,0,1,0-.047-.047A.04695.04695,0,0,0,8.408,4.352ZM8.4,4.332H8.387V4.277H8.41a.02239.02239,0,0,1,.014.003.01513.01513,0,0,1,.007.014.01566.01566,0,0,1-.009.014l.01.024H8.418L8.41,4.31H8.401v.022Zm0-.031h.007L8.415,4.3l.003-.006-.003-.006-.008-.001H8.4Z" fill="#fff"/>
									</g>
								</g>
							</g>
						</g>
					</g>
				</g>
			</g>
		</symbol>
		<symbol id="paypal"
			xmlns:xlink="http://www.w3.org/1999/xlink"  viewBox="0 0 11.217 7.076">
			<defs>
				<linearGradient id="linear-gradient" x1="0.111" y1="-25.102" x2="11.107" y2="-25.102" gradientTransform="matrix(1, 0, 0, -1, 0, -21.564)" gradientUnits="userSpaceOnUse">
					<stop offset="0" stop-color="#fff"/>
					<stop offset="0.329" stop-color="#fff6e6"/>
					<stop offset="0.7485" stop-color="#feedcd"/>
					<stop offset="1" stop-color="#feeac3"/>
				</linearGradient>
			</defs>
			<g id="Layer_2" data-name="Layer 2">
				<g id="Layer_1-2" data-name="Layer 1">
					<g>
						<path d="M10.607,6.949H.611a.50018.50018,0,0,1-.5-.5V.627a.50018.50018,0,0,1,.5-.5h9.996a.50018.50018,0,0,1,.5.5V6.449A.50018.50018,0,0,1,10.607,6.949Z" fill="url(#linear-gradient)"/>
						<path d="M11.217.806A.72161.72161,0,0,0,10.394,0H.823A.75678.75678,0,0,0,.221.221.78559.78559,0,0,0,0,.806V6.27a.78635.78635,0,0,0,.221.585.81967.81967,0,0,0,.602.221h9.571a.72364.72364,0,0,0,.823-.806V.806ZM10.394.127a.6023.6023,0,0,1,.679.679V6.27a.60069.60069,0,0,1-.679.679H.823a.66706.66706,0,0,1-.505-.191A.6601.6601,0,0,1,.127,6.27V.806A.60607.60607,0,0,1,.823.127Z" fill="#fbb161"/>
						<g>
							<path d="M7.329,2.469H6.574a.14682.14682,0,0,0-.111.089L6.152,4.512a.05935.05935,0,0,0,.067.067h.4a.05935.05935,0,0,0,.067-.067l.089-.555a.10171.10171,0,0,1,.111-.089H7.13a.7737.7737,0,0,0,.866-.733.58154.58154,0,0,0-.089-.488.89024.89024,0,0,0-.578-.178m.089.733c-.044.266-.244.266-.444.266H6.841l.089-.511c0-.022.022-.044.067-.044h.044c.133,0,.266,0,.333.089.044.022.044.089.044.2" fill="#169ad7"/>
							<g>
								<path d="M1.89,2.469H1.135a.14682.14682,0,0,0-.111.089L.713,4.512a.05935.05935,0,0,0,.067.067h.355a.14682.14682,0,0,0,.111-.089l.089-.533a.10171.10171,0,0,1,.111-.089H1.69a.7737.7737,0,0,0,.866-.733.58151.58151,0,0,0-.089-.488.848.848,0,0,0-.577-.178m.088.733c-.044.266-.244.266-.444.266H1.423l.089-.511c0-.022.022-.044.067-.044h.044c.133,0,.266,0,.333.089a.2361.2361,0,0,1,.022.2" fill="#243d80"/>
								<path d="M4.177,3.179H3.822c-.022,0-.067.022-.067.044l-.022.111L3.711,3.29a.5222.5222,0,0,0-.422-.155.85384.85384,0,0,0-.822.733.66281.66281,0,0,0,.133.555.55958.55958,0,0,0,.466.178.7108.7108,0,0,0,.511-.2l-.022.111a.05936.05936,0,0,0,.067.067h.333a.14684.14684,0,0,0,.111-.089l.2-1.243c-.023-.023-.067-.068-.089-.068m-.511.711a.42891.42891,0,0,1-.422.355A.35088.35088,0,0,1,3,4.156a.47624.47624,0,0,1-.067-.266.4063.4063,0,0,1,.4-.355.39831.39831,0,0,1,.244.089.38351.38351,0,0,1,.089.266" fill="#243d80"/>
							</g>
							<path d="M9.594,3.179H9.239c-.022,0-.067.022-.067.044l-.022.111L9.128,3.29a.5222.5222,0,0,0-.422-.155.85384.85384,0,0,0-.822.733.66281.66281,0,0,0,.133.555.55958.55958,0,0,0,.466.178.7108.7108,0,0,0,.511-.2l-.022.111a.05936.05936,0,0,0,.067.067h.333a.14684.14684,0,0,0,.111-.089l.2-1.243c-.022-.023-.044-.068-.089-.068m-.51.711a.42891.42891,0,0,1-.422.355.35088.35088,0,0,1-.244-.089.47616.47616,0,0,1-.067-.266.4063.4063,0,0,1,.4-.355.39833.39833,0,0,1,.244.089.25384.25384,0,0,1,.089.266" fill="#169ad7"/>
							<path d="M6.108,3.179H5.731a.11644.11644,0,0,0-.089.044l-.488.755-.222-.711A.1028.1028,0,0,0,4.821,3.2H4.466c-.044,0-.067.044-.067.089l.4,1.177-.377.533c-.022.044,0,.111.044.111h.355a.11644.11644,0,0,0,.089-.044L6.131,3.312c.066-.066.022-.133-.023-.133" fill="#243d80"/>
							<path d="M10.016,2.535,9.705,4.533a.05935.05935,0,0,0,.067.067h.311a.14682.14682,0,0,0,.111-.089l.311-1.954a.05935.05935,0,0,0-.067-.067h-.355c-.023-.021-.045.001-.067.045" fill="#169ad7"/>
						</g>
					</g>
				</g>
			</g>
		</symbol>
		<symbol id="rupay" viewBox="0 0 11.217 7.076">
			<g id="Layer_2" data-name="Layer 2">
				<g id="Layer_1-2" data-name="Layer 1">
					<g>
						<path d="M10.607,6.949H.611a.50018.50018,0,0,1-.5-.5V.627a.50018.50018,0,0,1,.5-.5h9.996a.50018.50018,0,0,1,.5.5V6.449A.50019.50019,0,0,1,10.607,6.949Z" fill="#fff"/>
						<path d="M11.217.806A.72161.72161,0,0,0,10.394,0H.823A.75678.75678,0,0,0,.221.221.78559.78559,0,0,0,0,.806V6.27a.78635.78635,0,0,0,.221.585.81967.81967,0,0,0,.602.221h9.571a.72364.72364,0,0,0,.823-.806V.806ZM10.394.127a.6023.6023,0,0,1,.679.679V6.27a.60069.60069,0,0,1-.679.679H.823a.66706.66706,0,0,1-.505-.191A.6601.6601,0,0,1,.127,6.27V.806A.60607.60607,0,0,1,.823.127Z" fill="#999"/>
						<g>
							<path d="M6.035,3.148c.042-.335-.213-.474-.531-.474H4.667l-.494,1.8h.532l.149-.555.424.003A.772.772,0,0,0,6.035,3.148Zm-.546.179a.25027.25027,0,0,1-.26.17h-.26l.103-.382s.165.001.274.001A.14589.14589,0,0,1,5.489,3.327Z" fill="#2f2f85"/>
							<path d="M2.998,3.166h.485l-.2.768s-.05.171.11.185c.127.01.221-.141.252-.243.041-.134.198-.71.198-.71h.5l-.38,1.308H3.527l.054-.187a.69484.69484,0,0,1-.553.239c-.294-.029-.319-.242-.268-.508C2.784,3.887,2.998,3.166,2.998,3.166Z" fill="#2f2f85"/>
							<path d="M7.215,3.829c.064-.218.145-.424.08-.538-.1-.175-.279-.19-.543-.19a.69727.69727,0,0,0-.767.442h.484a.21172.21172,0,0,1,.226-.136c.161.008.152.119.093.18-.104.107-.391.048-.709.158a.53808.53808,0,0,0-.315.607c.058.141.167.159.314.174a.6593.6593,0,0,0,.501-.186c0,.086.002.134.002.134H7.09l-.001-.048s-.045-.012-.04-.076C7.054,4.303,7.142,4.079,7.215,3.829Zm-.733.379c-.083.021-.184.032-.204-.043-.055-.207.429-.267.429-.267A.33408.33408,0,0,1,6.482,4.208Z" fill="#2f2f85"/>
							<path d="M2.878,3.093c.042-.335-.252-.419-.571-.419H1.47l-.494,1.8h.532l.166-.611.298.002s.123-.007.125.108c.003.123-.091.35-.085.5h.546l-.001-.048s-.045-.012-.04-.076a1.7851,1.7851,0,0,1,.07-.224.69529.69529,0,0,0,.055-.265c-.004-.12-.08-.176-.188-.215C2.793,3.567,2.878,3.093,2.878,3.093Zm-.564.23c-.069.159-.282.141-.282.141l-.248-.001.091-.337s.222.001.331.001C2.322,3.127,2.358,3.22,2.314,3.323Z" fill="#2f2f85"/>
							<path d="M7.446,3.166H7.94v.785l.427-.785H8.82L7.906,4.752a.80251.80251,0,0,1-.19.203.44.44,0,0,1-.225.058c-.181-.002-.398-.002-.398-.002l.105-.378h.17a.154.154,0,0,0,.151-.173C7.519,4.38,7.446,3.166,7.446,3.166Z" fill="#2f2f85"/>
							<polygon points="9.454 2.864 8.883 4.848 9.951 3.856 9.454 2.864" fill="#0f8147"/>
							<polygon points="9.088 2.864 8.518 4.848 9.585 3.856 9.088 2.864" fill="#ef7422"/>
							<path d="M10.15,2.917a.216.216,0,1,1,.216-.216A.21638.21638,0,0,1,10.15,2.917Zm0-.413a.197.197,0,1,0,.197.197A.19738.19738,0,0,0,10.15,2.504Z" fill="#010101"/>
							<g>
								<path d="M10.045,2.781V2.646h-.05V2.628h.121v.018h-.051v.135Z" fill="#010101"/>
								<path d="M10.147,2.781V2.628h.031l.036.108.007.023.008-.025.037-.107h.027V2.78h-.02V2.652l-.045.128H10.21l-.044-.13v.13h-.019Z" fill="#010101"/>
							</g>
						</g>
					</g>
				</g>
			</g>
		</symbol>
		<symbol id="discover"
			xmlns:xlink="http://www.w3.org/1999/xlink" viewBox="0 0 11.217 7.076">
			<defs>
				<radialGradient id="radial-gradient" cx="-0.542" cy="461.43701" r="0.78405" gradientTransform="matrix(1, 0, 0, -1, 6.416, 464.519)" gradientUnits="userSpaceOnUse">
					<stop offset="0.0056" stop-color="#ffefe2"/>
					<stop offset="0.0964" stop-color="#ffebd9"/>
					<stop offset="0.2444" stop-color="#fedec3"/>
					<stop offset="0.4315" stop-color="#fdcba0"/>
					<stop offset="0.6502" stop-color="#fab073"/>
					<stop offset="0.8926" stop-color="#f79139"/>
					<stop offset="1" stop-color="#f58220"/>
				</radialGradient>
			</defs>
			<g id="Layer_2" data-name="Layer 2">
				<g id="Layer_1-2" data-name="Layer 1">
					<g>
						<path d="M10.606,6.949H.61a.50018.50018,0,0,1-.5-.5V.627a.50018.50018,0,0,1,.5-.5h9.996a.50018.50018,0,0,1,.5.5V6.449A.49954.49954,0,0,1,10.606,6.949Z" fill="#fff"/>
						<g>
							<path d="M5.875,2.307a.77991.77991,0,0,0-.794.765.79337.79337,0,1,0,.794-.765Z" fill="url(#radial-gradient)"/>
							<path d="M1.369,2.335H.942V3.824h.425a.77369.77369,0,0,0,.531-.172.74812.74812,0,0,0,.27-.572A.74047.74047,0,0,0,1.369,2.335Zm.339,1.118a.54888.54888,0,0,1-.397.119H1.233V2.588h.078a.5361.5361,0,0,1,.397.12.50114.50114,0,0,1,.16.37A.51066.51066,0,0,1,1.708,3.453Z" fill="#091a23"/>
							<rect x="2.301" y="2.335" width="0.29" height="1.489" fill="#091a23"/>
							<path d="M3.301,2.906c-.174-.065-.225-.107-.225-.187,0-.094.091-.165.216-.165a.30225.30225,0,0,1,.234.12l.152-.198a.64767.64767,0,0,0-.438-.165.4372.4372,0,0,0-.464.426c0,.206.094.31.366.409a1.12888,1.12888,0,0,1,.201.085.17772.17772,0,0,1,.087.154.2122.2122,0,0,1-.226.21.34347.34347,0,0,1-.317-.199L2.7,3.577a.579.579,0,0,0,.516.283.48024.48024,0,0,0,.513-.489C3.73,3.134,3.632,3.027,3.301,2.906Z" fill="#091a23"/>
							<path d="M3.821,3.08a.771.771,0,0,0,.786.777.80532.80532,0,0,0,.364-.087V3.428a.46664.46664,0,0,1-.351.163.48689.48689,0,0,1-.5-.514.49451.49451,0,0,1,.487-.511.4873.4873,0,0,1,.364.167V2.391A.73476.73476,0,0,0,4.614,2.3.78578.78578,0,0,0,3.821,3.08Z" fill="#091a23"/>
							<polygon points="7.324 3.335 6.926 2.335 6.609 2.335 7.241 3.862 7.398 3.862 8.04 2.335 7.726 2.335 7.324 3.335" fill="#091a23"/>
							<polygon points="8.172 3.824 8.996 3.824 8.996 3.572 8.463 3.572 8.463 3.17 8.975 3.17 8.975 2.918 8.463 2.918 8.463 2.587 8.996 2.587 8.996 2.335 8.172 2.335 8.172 3.824" fill="#091a23"/>
							<path d="M10.145,2.774c0-.279-.192-.439-.527-.439H9.187V3.824h.29V3.226h.038l.402.598h.357l-.469-.627A.39676.39676,0,0,0,10.145,2.774Zm-.582.246H9.479V2.569h.089c.181,0,.28.076.28.221C9.847,2.94,9.748,3.02,9.563,3.02Z" fill="#091a23"/>
							<path d="M3.544,4.215l.388.407V4.236h.056v.52L3.6,4.35v.384H3.544Z" fill="#231f20"/>
							<path d="M3.539,4.215v.524h.066V4.363c.017.018.388.406.388.406V4.231H3.927v.378c-.017-.018-.388-.407-.388-.407Zm.01.013c.017.018.389.407.389.407V4.241h.045v.503c-.017-.018-.388-.406-.388-.406V4.73H3.55C3.549,4.719,3.549,4.252,3.549,4.228Z" fill="#231f20"/>
							<path d="M4.257,4.236h.258v.051H4.312v.148h.197v.051H4.312v.195h.203v.052H4.257Z" fill="#231f20"/>
							<path d="M4.515,4.231H4.252v.508h.269V4.677H4.318V4.492h.197V4.43H4.318V4.293h.203V4.231Zm-.005.01v.041H4.307V4.44h.196v.041H4.307v.206H4.51v.041H4.262V4.24C4.272,4.241,4.5,4.241,4.51,4.241Z" fill="#231f20"/>
							<path d="M4.907,4.734H4.852V4.288h-.12V4.237h.297v.051H4.907Z" fill="#231f20"/>
							<path d="M5.028,4.231H4.725v.062h.12v.446h.066V4.293h.122V4.231Zm-.005.01v.041H4.901v.447H4.856V4.282h-.12V4.241Z" fill="#231f20"/>
							<path d="M5.399,4.609,5.56,4.21l.161.399.131-.373h.061l-.191.524-.161-.401-.162.401-.191-.524h.06Z" fill="#231f20"/>
							<path d="M5.556,4.208s-.147.362-.156.386c-.008-.024-.127-.364-.127-.364H5.202l.198.544s.152-.379.161-.402c.009.023.161.402.161.402L5.92,4.23H5.849s-.119.339-.127.364c-.01-.024-.161-.398-.161-.398Zm-.152.403s.147-.365.156-.387c.009.022.161.4.161.4s.132-.376.134-.383h.049c-.005.013-.175.48-.184.504-.009-.024-.161-.4-.161-.4s-.152.377-.161.4c-.009-.024-.179-.491-.184-.504h.049c.003.007.134.383.134.383Z" fill="#231f20"/>
							<path d="M6.63,4.486a.26.26,0,1,1-.26-.258A.25885.25885,0,0,1,6.63,4.486Zm-.464-.001a.204.204,0,1,0,.204-.206A.20593.20593,0,0,0,6.166,4.485Z" fill="#231f20"/>
							<path d="M6.106,4.486a.265.265,0,1,0,.265-.263A.26355.26355,0,0,0,6.106,4.486Zm.01,0a.25451.25451,0,1,1,.255.252A.25372.25372,0,0,1,6.116,4.486Z" fill="#231f20"/>
							<path d="M6.161,4.485a.2095.2095,0,1,0,.21-.211A.21083.21083,0,0,0,6.161,4.485Zm.011,0a.19851.19851,0,1,1,.199.201A.19994.19994,0,0,1,6.172,4.485Z" fill="#231f20"/>
							<path d="M6.926,4.734H6.871V4.236h.072c.095,0,.182.025.182.137a.12894.12894,0,0,1-.124.137l.158.223H7.091l-.15-.219H6.927v.22Zm0-.267h.017c.062,0,.126-.012.126-.089,0-.082-.06-.09-.127-.09H6.925v.179Z" fill="#231f20"/>
							<path d="M6.871,4.231H6.866v.508h.066V4.52H6.94c0,.004.146.216.146.216l.072.002h.011s-.153-.214-.16-.225a.13452.13452,0,0,0,.122-.14c0-.096-.061-.143-.187-.143H6.871Zm.072.01c.12,0,.177.042.177.132A.125.125,0,0,1,7,4.505l-.009.001s.147.207.158.222H7.091c0-.004-.146-.217-.146-.217l-.019-.002H6.921v.219H6.876V4.24C6.885,4.241,6.943,4.241,6.943,4.241Z" fill="#231f20"/>
							<path d="M6.926,4.282H6.921v.189h.023c.061,0,.131-.011.131-.094,0-.088-.068-.095-.132-.095Zm.017.011c.064,0,.122.006.122.084,0,.074-.061.084-.121.084H6.932V4.293Z" fill="#231f20"/>
							<path d="M7.662,4.236h.074l-.234.232.241.266H7.666l-.204-.229-.013.014v.215H7.393V4.236h.056v.213Z" fill="#231f20"/>
							<path d="M7.736,4.231H7.659s-.189.189-.205.206V4.231H7.389v.508h.066V4.52l.008-.007c.007.007.2.225.2.225l.08.002h.012s-.24-.264-.247-.271l.239-.237H7.736Zm-.013.01c-.017.017-.229.227-.229.227s.222.245.237.261H7.666l-.2-.227-.003-.004-.018.018-.001.213H7.399V4.241h.045v.221l.219-.221Z" fill="#231f20"/>
						</g>
						<path d="M11.17,3.923A21.74857,21.74857,0,0,1,2.677,6.977h8.104l.246-.187.124-.26Z" fill="#f58220"/>
						<path d="M10.394.127a.6023.6023,0,0,1,.679.679V6.27a.60069.60069,0,0,1-.679.679H.823a.667.667,0,0,1-.505-.191A.66006.66006,0,0,1,.127,6.27V.806A.60607.60607,0,0,1,.823.127Zm.823.679A.72161.72161,0,0,0,10.394,0H.823A.75677.75677,0,0,0,.221.221.78559.78559,0,0,0,0,.806V6.27a.78635.78635,0,0,0,.221.585.81967.81967,0,0,0,.602.221h9.571a.70876.70876,0,0,0,.79-.52,1.14636,1.14636,0,0,0,.033-.286V.806Z" fill="#231f20"/>
					</g>
				</g>
			</g>
		</symbol>
		<symbol id="amex"
			xmlns="http://www.w3.org/2000/svg"
			xmlns:xlink="http://www.w3.org/1999/xlink" viewBox="0 0 11.217 7.076">
			<defs>
				<radialGradient id="radial-gradient" cx="-145.3818" cy="-855.65853" r="5.4312" gradientTransform="translate(149.0522 857.30859)" gradientUnits="userSpaceOnUse">
					<stop offset="0" stop-color="#9fd4f3"/>
					<stop offset="0.0711" stop-color="#99d2f2"/>
					<stop offset="0.1575" stop-color="#8bcdf1"/>
					<stop offset="0.2516" stop-color="#71c6ef"/>
					<stop offset="0.3514" stop-color="#51bcea"/>
					<stop offset="0.4546" stop-color="#21ade4"/>
					<stop offset="0.5" stop-color="#1aa6df"/>
					<stop offset="1" stop-color="#3078bc"/>
				</radialGradient>
			</defs>
			<g id="Layer_2" data-name="Layer 2">
				<g id="Layer_1-2" data-name="Layer 1">
					<g>
						<path d="M10.607,6.949H.611a.50018.50018,0,0,1-.5-.5V.627a.50018.50018,0,0,1,.5-.5h9.996a.50018.50018,0,0,1,.5.5V6.449A.50018.50018,0,0,1,10.607,6.949Z" fill="#fff"/>
						<path d="M11.217.806A.72161.72161,0,0,0,10.394,0H.823A.75677.75677,0,0,0,.221.221.78559.78559,0,0,0,0,.806V6.27a.78635.78635,0,0,0,.221.585.81967.81967,0,0,0,.602.221h9.571a.72364.72364,0,0,0,.823-.806V.806ZM10.394.127a.6023.6023,0,0,1,.679.679V6.27a.60069.60069,0,0,1-.679.679H.823a.667.667,0,0,1-.505-.191A.66006.66006,0,0,1,.127,6.27V.806A.60607.60607,0,0,1,.823.127Z" fill="#999"/>
						<g>
							<path d="M8.437.635H2.649V6.444H8.437V4.527a.21967.21967,0,0,0,.034-.128.19656.19656,0,0,0-.034-.127" fill="url(#radial-gradient)"/>
							<path d="M3.171,3.149,3.06,2.878l-.111.271m2.675-.108a.1457.1457,0,0,1-.08.014H5.346V2.904h.2a.16672.16672,0,0,1,.077.012.06233.06233,0,0,1,.034.06A.06962.06962,0,0,1,5.624,3.041Zm1.41.108-.113-.271-.112.271Zm-2.628.294H4.239L4.238,2.91l-.236.533H3.859l-.236-.534v.534H3.292l-.063-.152H2.89l-.063.152H2.65l.291-.681h.242l.277.644V2.762h.265l.213.462.196-.462h.271l.001.681Zm.664,0H4.527V2.762H5.07v.142H4.689v.123h.372v.14H4.689v.136H5.07Zm.766-.498a.18851.18851,0,0,1-.115.181.18338.18338,0,0,1,.08.057.19573.19573,0,0,1,.027.125v.134H5.664l-.001-.086a.2034.2034,0,0,0-.026-.133c-.024-.024-.06-.029-.119-.029H5.343v.248h-.16V2.761h.374a.37792.37792,0,0,1,.197.033A.1586.1586,0,0,1,5.836,2.945Zm.261.498H5.931V2.762h.166Zm1.925,0H7.791l-.308-.511v.511H7.152l-.063-.152H6.751l-.061.152H6.5a.34159.34159,0,0,1-.236-.075.34363.34363,0,0,1-.087-.26.36178.36178,0,0,1,.088-.266.33206.33206,0,0,1,.247-.079H6.67v.146H6.516a.158.158,0,0,0-.125.04.22408.22408,0,0,0-.047.154.23351.23351,0,0,0,.045.16.15674.15674,0,0,0,.113.035h.073l.229-.535h.244l.275.644V2.763h.248l.286.474V2.763h.167v.68Zm-5.373.133h.278l.063-.151h.14l.063.151H3.74V3.46l.049.116h.284l.049-.118v.117H5.481L5.48,3.327h.026c.018.001.024.002.024.033v.215h.703V3.518a.56276.56276,0,0,0,.261.058H6.79l.063-.151h.14l.062.151h.57V3.432l.086.144h.457V2.627H7.716v.112l-.063-.112H7.189v.112l-.058-.112H6.505a.56821.56821,0,0,0-.271.055V2.627H5.802v.055a.26772.26772,0,0,0-.184-.055H4.039l-.106.245-.109-.245H3.327v.112l-.055-.112H2.848l-.197.451-.002.498Z" fill="#fff"/>
							<path d="M8.437,4.078H8.141a.115.115,0,0,0-.066.012.0531.0531,0,0,0-.024.049.05111.05111,0,0,0,.036.051.18557.18557,0,0,0,.063.008l.088.002a.25542.25542,0,0,1,.185.055.059.059,0,0,1,.015.017m-.001.255a.25425.25425,0,0,1-.221.087H7.902V4.468h.313a.09183.09183,0,0,0,.066-.017A.06182.06182,0,0,0,8.3,4.407a.055.055,0,0,0-.02-.045.08475.08475,0,0,0-.057-.015c-.153-.005-.343.005-.343-.211a.20317.20317,0,0,1,.233-.203h.324V3.798H8.136a.33956.33956,0,0,0-.204.056V3.798H7.487a.30638.30638,0,0,0-.194.056V3.798H6.498v.056a.4194.4194,0,0,0-.219-.056H5.754v.056a.3734.3734,0,0,0-.229-.056H4.938l-.134.145-.126-.145H3.801v.95h.86L4.799,4.6l.13.148h.53V4.525h.052a.56951.56951,0,0,0,.227-.033v.256h.437V4.5h.021c.027,0,.03.001.03.028v.22H7.555a.378.378,0,0,0,.221-.061v.061h.422a.56062.56062,0,0,0,.239-.044V4.527Zm-.649-.272a.18813.18813,0,0,1,.049.144c0,.146-.091.215-.256.215H7.264V4.468H7.58a.0918.0918,0,0,0,.066-.017.06183.06183,0,0,0,.019-.044.058.058,0,0,0-.02-.045.08785.08785,0,0,0-.058-.015c-.152-.005-.343.005-.343-.211,0-.099.062-.203.233-.203h.326v.145H7.505a.10967.10967,0,0,0-.065.012.05115.05115,0,0,0-.024.049.0523.0523,0,0,0,.036.051.1856.1856,0,0,0,.063.008l.088.002A.26174.26174,0,0,1,7.788,4.255ZM6.32,4.213a.15528.15528,0,0,1-.08.014H6.042V4.074h.2a.17112.17112,0,0,1,.078.012.06488.06488,0,0,1,.034.061A.07423.07423,0,0,1,6.32,4.213Zm.098.085a.17576.17576,0,0,1,.08.057.1991.1991,0,0,1,.027.124v.135H6.362V4.529c0-.041.004-.102-.026-.133a.15941.15941,0,0,0-.119-.03H6.043v.249H5.88V3.934h.376a.412.412,0,0,1,.196.032.15966.15966,0,0,1,.084.151A.19548.19548,0,0,1,6.418,4.298Zm.206-.365h.543v.141H6.786v.124h.372v.139H6.786v.135l.381.001v.141H6.624Zm-1.098.315h-.21V4.075h.212c.059,0,.099.024.099.083C5.628,4.217,5.589,4.248,5.526,4.248Zm-.372.304-.25-.277.25-.268Zm-.645-.08h-.4V4.337h.357V4.198H4.109V4.074h.408l.178.198Zm1.293-.314c0,.189-.141.228-.283.228H5.316v.228H5l-.2-.225-.208.225H3.948V3.933h.654l.2.223.207-.223h.52C5.657,3.933,5.802,3.969,5.802,4.158Z" fill="#fff"/>
						</g>
					</g>
				</g>
			</g>
		</symbol>
		<symbol id="mastero" viewBox="0 0 11.217 7.076">
			<g id="Layer_2" data-name="Layer 2">
				<g id="Layer_1-2" data-name="Layer 1">
					<g>
						<path d="M10.6065,6.949H.6105a.50018.50018,0,0,1-.5-.5V.627a.50018.50018,0,0,1,.5-.5h9.996a.50018.50018,0,0,1,.5.5V6.449A.50018.50018,0,0,1,10.6065,6.949Z" fill="#003473"/>
						<path d="M11.217.806A.72161.72161,0,0,0,10.394,0H.823A.75677.75677,0,0,0,.221.221.78559.78559,0,0,0,0,.806V6.27a.78635.78635,0,0,0,.221.585.81967.81967,0,0,0,.602.221h9.571a.72364.72364,0,0,0,.823-.806V.806ZM10.394.127a.60229.60229,0,0,1,.679.679V6.27a.60069.60069,0,0,1-.679.679H.823a.667.667,0,0,1-.505-.191A.66006.66006,0,0,1,.127,6.27V.806A.60607.60607,0,0,1,.823.127Z" fill="#003473"/>
						<g>
							<polygon points="2.089 5.764 9.128 5.764 9.128 1.312 2.089 1.312 2.089 5.764" fill="#003473"/>
							<path d="M5.605,4.957a1.93422,1.93422,0,1,0-1.296.5,1.92544,1.92544,0,0,0,1.296-.5Z" fill="#009ddd"/>
							<path d="M5.605,4.957a1.93463,1.93463,0,0,0,0-2.868V4.957Z" fill="#009ddd"/>
							<path d="M6.905,1.589a1.92931,1.92931,0,0,0-1.299.5,2.33742,2.33742,0,0,0-.193.205h.39a2.479,2.479,0,0,1,.148.205H5.265c-.042.068-.08.136-.114.205H6.06a2.09672,2.09672,0,0,1,.083.205H5.071a1.77,1.77,0,0,0-.057.208H6.2a2.01865,2.01865,0,0,1,.042.409,1.95889,1.95889,0,0,1-.098.614H5.072c.023.068.049.136.08.205h.909a2.13338,2.13338,0,0,1-.11.205H5.265a2.01541,2.01541,0,0,0,.148.205h.39a2.11037,2.11037,0,0,1-.197.205A1.93474,1.93474,0,1,0,6.905,1.589Z" fill="#ed1b2e"/>
							<path d="M8.59,4.601a.061.061,0,1,1,.122,0,.06107.06107,0,1,1-.122,0Zm.061.049A.04974.04974,0,0,0,8.7,4.601a.04639.04639,0,0,0-.049-.045.047.047,0,0,0-.049.045.04974.04974,0,0,0,.049.049Zm-.008-.023H8.628V4.574h.023c.008,0,.011,0,.015.004.004,0,.008.008.008.011a.0187.0187,0,0,1-.008.015l.008.023H8.659l-.008-.019H8.643v.019Zm0-.03h.016l.004-.008-.004-.004-.008-.004H8.643v.016Z" fill="#ed1b2e"/>
							<polygon points="4.006 4.063 3.764 4.063 3.908 3.309 3.578 4.063 3.374 4.063 3.332 3.313 3.173 4.063 2.953 4.063 3.139 3.082 3.521 3.082 3.525 3.688 3.79 3.082 4.196 3.082 4.006 4.063" fill="#003473"/>
							<path d="M6.696,4.052a.60593.60593,0,0,1-.174.027c-.121,0-.189-.061-.189-.174a.43969.43969,0,0,1,.008-.072l.015-.08.011-.061.11-.61h.239l-.034.182h.121l-.03.193H6.648l-.064.333c0,.015-.004.027-.004.034,0,.042.027.057.083.057a.1466.1466,0,0,0,.064-.008l-.031.179Z" fill="#003473"/>
							<path d="M5.742,3.517c0,.098.057.17.182.22.102.042.117.053.117.091,0,.049-.045.072-.14.072a.75053.75053,0,0,1-.22-.034l-.034.186h.011l.045.008a.23225.23225,0,0,0,.064.008c.057.004.102.008.133.008.258,0,.375-.083.375-.265a.22286.22286,0,0,0-.17-.224c-.102-.038-.114-.049-.114-.087,0-.042.042-.064.117-.064a1.74266,1.74266,0,0,1,.178.011l.034-.182a1.51587,1.51587,0,0,0-.216-.019c-.272-.001-.366.124-.362.271Z" fill="#003473"/>
							<path d="M4.787,4.063H4.586L4.59,3.98a.3311.3311,0,0,1-.254.095.2079.2079,0,0,1-.22-.216c0-.193.155-.307.424-.307a.91521.91521,0,0,1,.099.004.14535.14535,0,0,0,.008-.049c0-.053-.042-.076-.155-.076a.9608.9608,0,0,0-.197.023l-.034.011-.023.004.034-.178a.99466.99466,0,0,1,.288-.045c.208,0,.318.083.318.235a.68994.68994,0,0,1-.023.159l-.049.28-.008.053-.008.042-.004.027v.021Zm-.163-.356a.31421.31421,0,0,0-.057-.004c-.136,0-.205.042-.205.121a.07816.07816,0,0,0,.087.08.183.183,0,0,0,.175-.197Z" fill="#003473"/>
							<path d="M5.575,4.044a.87023.87023,0,0,1-.246.034c-.269,0-.409-.125-.409-.36a.4365.4365,0,0,1,.421-.474.2882.2882,0,0,1,.326.288.69949.69949,0,0,1-.03.197H5.16a.08172.08172,0,0,0-.004.027c0,.091.072.14.212.14a.59218.59218,0,0,0,.25-.053l-.043.201ZM5.461,3.57V3.528c0-.064-.042-.102-.114-.102a.1594.1594,0,0,0-.155.144Z" fill="#003473"/>
							<path d="M8.143,3.699a.421.421,0,0,1-.466.383.34093.34093,0,0,1-.383-.367.44823.44823,0,0,1,.474-.474.3487.3487,0,0,1,.383.36.38918.38918,0,0,1-.008.098Zm-.242-.095c0-.083-.034-.163-.133-.163-.121,0-.201.148-.201.273,0,.11.053.182.14.182a.24036.24036,0,0,0,.186-.197.637.637,0,0,0,.008-.095Z" fill="#003473"/>
							<path d="M8.17,3.942a.06322.06322,0,0,1,.064-.061.06061.06061,0,0,1,.061.061.06322.06322,0,0,1-.061.064.06581.06581,0,0,1-.064-.064Zm.064.049a.04639.04639,0,0,0,.045-.049.043.043,0,0,0-.045-.045.047.047,0,0,0-.049.045.05043.05043,0,0,0,.049.049Zm-.007-.023H8.212V3.915h.023c.008,0,.011,0,.015.004l.008.011c0,.008-.004.015-.011.015l.011.023H8.243l-.008-.019H8.227v.019Zm0-.03h.016V3.926H8.228v.012Z" fill="#fff"/>
							<polygon points="4.067 4.006 3.825 4.006 3.969 3.252 3.639 4.006 3.419 4.006 3.381 3.256 3.237 4.006 3.018 4.006 3.203 3.025 3.582 3.025 3.601 3.631 3.866 3.025 4.256 3.025 4.067 4.006" fill="#fff"/>
							<path d="M6.757,3.995a.60588.60588,0,0,1-.174.027c-.121,0-.189-.061-.189-.174a.49327.49327,0,0,1,.008-.072l.015-.08.011-.061.11-.61h.239l-.034.182h.125L6.834,3.4H6.709l-.061.333a.19081.19081,0,0,0-.008.034c0,.042.027.061.083.061a.25067.25067,0,0,0,.064-.008l-.03.175Z" fill="#fff"/>
							<path d="M7.374,3.438,7.37,3.411l.045-.125c-.011,0-.015,0-.019-.004a.04639.04639,0,0,1-.019-.004H7.354c-.08,0-.136.034-.212.129l.027-.144h-.25l-.148.799H7.01c.034-.186.049-.288.068-.375.03-.144.136-.208.216-.193a.07318.07318,0,0,1,.027.004l.015.008.038-.068Z" fill="#003473"/>
							<path d="M7.458,3.214a.06323.06323,0,0,0-.027-.008c-.011-.004-.019-.004-.019-.008H7.385c-.08,0-.136.034-.208.129L7.2,3.206H6.98l-.148.799h.242c.087-.489.121-.576.239-.576.008,0,.019.004.03.004l.027.008.088-.227Z" fill="#fff"/>
							<path d="M5.802,3.461c0,.098.057.17.186.22.099.042.114.053.114.091,0,.049-.045.072-.14.072a.77092.77092,0,0,1-.22-.034l-.03.186h.011l.042.011c.015,0,.038.004.064.004a.91812.91812,0,0,0,.136.008c.254,0,.375-.083.375-.265,0-.11-.049-.174-.174-.224-.102-.038-.114-.049-.114-.087,0-.042.042-.064.121-.064a1.67174,1.67174,0,0,1,.174.011l.034-.182a1.47591,1.47591,0,0,0-.212-.015c-.272-.001-.367.12-.367.268Z" fill="#fff"/>
							<path d="M4.847,4.006H4.65l.004-.083a.33114.33114,0,0,1-.254.095.20789.20789,0,0,1-.22-.216c0-.193.155-.307.424-.307a.91521.91521,0,0,1,.099.004.14521.14521,0,0,0,.008-.049c0-.053-.042-.072-.155-.072a1.0533,1.0533,0,0,0-.197.019l-.034.011-.023.004.034-.178a1.11013,1.11013,0,0,1,.288-.042c.208,0,.314.08.314.231a.85418.85418,0,0,1-.019.159l-.049.284-.008.049-.008.042-.004.027-.003.022ZM4.673,3.65a.29665.29665,0,0,0-.053-.004c-.136,0-.205.042-.205.121a.07719.07719,0,0,0,.083.083.18514.18514,0,0,0,.175-.2Z" fill="#fff"/>
							<path d="M5.639,3.987a.90648.90648,0,0,1-.246.034c-.269,0-.409-.125-.409-.36a.4365.4365,0,0,1,.421-.474.28682.28682,0,0,1,.322.288.80962.80962,0,0,1-.027.197H5.219v.027c0,.091.068.14.208.14a.64014.64014,0,0,0,.25-.049l-.038.197ZM5.51,3.514V3.472c0-.064-.042-.102-.114-.102-.076,0-.129.053-.152.144Z" fill="#fff"/>
							<path d="M8.208,3.642a.42692.42692,0,0,1-.47.383.33967.33967,0,0,1-.379-.367.44823.44823,0,0,1,.474-.474.3487.3487,0,0,1,.383.36.5119.5119,0,0,1-.008.098Zm-.25-.102c0-.083-.034-.159-.133-.159-.121,0-.197.144-.197.273,0,.106.053.178.136.178a.23539.23539,0,0,0,.186-.193.40167.40167,0,0,0,.008-.099Z" fill="#fff"/>
						</g>
					</g>
				</g>
			</g>
		</symbol>
		<symbol id="diners" viewBox="0 0 11.217 7.076">
			<g id="Layer_2" data-name="Layer 2">
				<g id="Layer_1-2" data-name="Layer 1">
					<g>
						<path d="M10.607,6.949H.611a.50018.50018,0,0,1-.5-.5V.627a.50018.50018,0,0,1,.5-.5h9.996a.50018.50018,0,0,1,.5.5V6.449A.50018.50018,0,0,1,10.607,6.949Z" fill="#fff"/>
						<path d="M11.217.806A.72161.72161,0,0,0,10.394,0H.823A.75677.75677,0,0,0,.221.221.78559.78559,0,0,0,0,.806V6.27a.78635.78635,0,0,0,.221.585.81967.81967,0,0,0,.602.221h9.571a.72364.72364,0,0,0,.823-.806V.806ZM10.394.127a.6023.6023,0,0,1,.679.679V6.27a.60069.60069,0,0,1-.679.679H.823a.667.667,0,0,1-.505-.191A.66006.66006,0,0,1,.127,6.27V.806A.60607.60607,0,0,1,.823.127Z" fill="#004a98"/>
						<g>
							<path d="M5.838,3.844A1.15641,1.15641,0,0,0,7.002,2.74,1.13756,1.13756,0,0,0,5.838,1.617H5.314A1.09846,1.09846,0,0,0,4.191,2.74,1.11615,1.11615,0,0,0,5.314,3.844Z" fill="#004a98"/>
							<path d="M5.548,3.332V2.126a.64558.64558,0,0,1,0,1.206m-.877-.603a.647.647,0,0,1,.415-.603V3.332a.648.648,0,0,1-.415-.603M5.317,1.71A1.019,1.019,0,1,0,6.336,2.729,1.01871,1.01871,0,0,0,5.317,1.71" fill="#fff"/>
							<path d="M3.053,4.604c0,.091.065.101.122.101a.32822.32822,0,0,0,.338-.367.35353.35353,0,0,0-.368-.379.77932.77932,0,0,0-.092.005Zm-.115-.552c0-.106-.055-.099-.108-.1V3.921c.046.002.093.002.139.002.049,0,.117-.002.204-.002a.42916.42916,0,0,1,.471.412c0,.117-.068.41-.485.41-.06,0-.115-.002-.171-.002-.053,0-.105.001-.158.002V4.712c.071-.007.105-.009.108-.089Z"/>
							<path d="M3.81,4.024a.058.058,0,1,1,0-.116.05783.05783,0,0,1,.058.057.0589.0589,0,0,1-.058.059m-.126.688h.022c.033,0,.056,0,.056-.039V4.354c0-.052-.018-.059-.061-.082V4.253c.055-.017.121-.039.126-.042a.03771.03771,0,0,1,.021-.006c.006,0,.008.007.008.017v.452c0,.039.026.039.059.039h.02v.031c-.04,0-.081-.002-.124-.002-.042,0-.085.001-.128.002V4.712Z"/>
							<path d="M4.048,4.361c0-.043-.013-.055-.068-.078V4.261a1.35208,1.35208,0,0,0,.155-.057c.004,0,.007.002.007.012v.077a.34589.34589,0,0,1,.204-.088c.1,0,.135.073.135.165v.304c0,.039.026.039.059.039h.021v.031c-.041,0-.082-.002-.125-.002-.042,0-.085.001-.127.002V4.713H4.33c.033,0,.056,0,.056-.039V4.368c0-.067-.041-.1-.108-.1a.32417.32417,0,0,0-.137.056v.348c0,.039.026.039.059.039h.021v.031c-.041,0-.082-.002-.125-.002-.042,0-.085.001-.127.002V4.711H3.99c.033,0,.056,0,.056-.039V4.361Z"/>
							<path d="M4.859,4.38c.029,0,.033-.015.033-.029a.0992.0992,0,0,0-.102-.108c-.072,0-.121.053-.135.138h.204Zm-.208.038a.34683.34683,0,0,0,0,.068.197.197,0,0,0,.173.204.22282.22282,0,0,0,.159-.079l.016.016a.275.275,0,0,1-.218.133.23667.23667,0,0,1-.225-.257c0-.231.155-.299.238-.299a.18715.18715,0,0,1,.199.185l-.001.021-.011.007h-.33Z"/>
							<path d="M5.02,4.712h.032c.033,0,.056,0,.056-.039V4.342c0-.036-.044-.044-.061-.053V4.271c.086-.037.133-.067.144-.067.007,0,.01.004.01.015v.106h.002c.029-.046.079-.121.151-.121a.06431.06431,0,0,1,.067.062.05668.05668,0,0,1-.055.06c-.037,0-.037-.028-.078-.028a.09946.09946,0,0,0-.086.098v.277c0,.039.023.039.057.039h.066v.031c-.065-.001-.114-.002-.165-.002-.048,0-.098.001-.14.002Z"/>
							<path d="M5.473,4.579a.15458.15458,0,0,0,.148.144.083.083,0,0,0,.095-.084c0-.139-.257-.094-.257-.284a.16179.16179,0,0,1,.182-.151.31562.31562,0,0,1,.134.034l.008.12H5.756a.12059.12059,0,0,0-.128-.116.083.083,0,0,0-.092.078c0,.138.273.095.273.28,0,.078-.062.16-.202.16a.30877.30877,0,0,1-.144-.04L5.45,4.585Z"/>
							<path d="M6.874,4.134H6.845a.22341.22341,0,0,0-.252-.193.3359.3359,0,0,0-.332.373.38421.38421,0,0,0,.351.409.24042.24042,0,0,0,.237-.204l.027.007-.027.172a.65043.65043,0,0,1-.26.062.41971.41971,0,0,1-.45-.443.43238.43238,0,0,1,.446-.414.8499.8499,0,0,1,.278.063Z"/>
							<path d="M6.916,4.712h.022c.033,0,.057,0,.057-.039V4.018c0-.077-.018-.079-.062-.092V3.907a.63567.63567,0,0,0,.121-.051.116.116,0,0,1,.026-.013c.007,0,.01.007.01.017v.813c0,.039.026.039.059.039h.02v.031c-.04,0-.081-.002-.124-.002-.042,0-.085.001-.128.002V4.712Z"/>
							<path d="M7.672,4.678c0,.021.013.022.033.022l.047-.001v.025a1.28142,1.28142,0,0,0-.17.036l-.006-.004V4.661a.31769.31769,0,0,1-.208.099.12628.12628,0,0,1-.129-.14V4.319c0-.031-.005-.06-.071-.066V4.231c.042-.001.136-.008.152-.008.013,0,.013.008.013.034v.304c0,.035,0,.137.102.137a.26221.26221,0,0,0,.142-.072V4.308c0-.023-.056-.036-.099-.048V4.239c.106-.007.172-.016.184-.016.009,0,.009.008.009.021v.434Z"/>
							<path d="M7.906,4.61a.126.126,0,0,0,.121.12c.126,0,.179-.124.179-.228a.22424.22424,0,0,0-.188-.233.1813.1813,0,0,0-.112.055Zm0-.32a.29877.29877,0,0,1,.175-.085.22893.22893,0,0,1,.219.247.297.297,0,0,1-.281.308.35039.35039,0,0,1-.164-.041l-.035.027-.025-.013a1.4515,1.4515,0,0,0,.016-.21V4.018c0-.077-.018-.079-.062-.092V3.907a.63567.63567,0,0,0,.121-.051.11619.11619,0,0,1,.026-.013c.007,0,.009.007.009.017v.43Z"/>
							<path d="M2.828,5.427h.009c.023,0,.047-.003.047-.036V5.055c0-.033-.024-.037-.047-.037H2.828V4.999c.025,0,.063.003.095.003s.07-.003.1-.003v.019H3.014c-.023,0-.047.003-.047.037v.336c0,.033.024.036.047.036h.009v.019c-.031,0-.069-.003-.101-.003-.031,0-.069.003-.094.003Z"/>
							<path d="M3.021,5.444V5.43H3.015c-.023,0-.05-.004-.05-.039V5.055c0-.035.027-.039.05-.039h.006V5.002c-.03,0-.067.003-.098.003-.03,0-.067-.002-.092-.003v.014h.006c.023,0,.05.004.05.039v.336c0,.035-.027.039-.05.039H2.831v.014c.025,0,.061-.003.091-.003.032,0,.069.003.099.003m.003.005c-.031,0-.069-.003-.101-.003-.031,0-.069.003-.094.003H2.826V5.424h.012c.023-.001.044-.002.045-.034V5.054c0-.031-.021-.033-.045-.034H2.826V4.995h.003c.025,0,.064.003.095.003.032,0,.07-.003.1-.003h.003V5.02H3.015c-.023,0-.044.002-.045.034V5.39c0,.031.021.033.045.034h.012v.025Z"/>
							<path d="M3.464,5.32l.001-.001v-.24a.05265.05265,0,0,0-.056-.06H3.395V5c.03,0,.06.003.09.003.026,0,.053-.003.079-.003v.019h-.01c-.027,0-.057.005-.057.081v.291a.4539.4539,0,0,0,.004.065H3.477l-.33-.368v.264c0,.056.011.075.06.075h.011v.019c-.028,0-.055-.003-.083-.003-.029,0-.058.003-.087.003V5.427h.009c.044,0,.058-.03.058-.081v-.27a.058.058,0,0,0-.058-.058H3.049V4.999c.024,0,.049.003.074.003.019,0,.038-.003.057-.003Z"/>
							<path d="M3.464,5.32l.002-.002Zm.012.133h.021a.41559.41559,0,0,1-.003-.062V5.1c0-.077.032-.084.06-.084h.007V5.002c-.025,0-.051.003-.076.003-.029,0-.058-.002-.087-.003v.014h.011a.05629.05629,0,0,1,.059.063l-.001.242-.001.001-.002.002-.285-.322c-.019,0-.038.003-.057.003-.023,0-.048-.002-.071-.003v.014h.006a.06029.06029,0,0,1,.061.06v.27c0,.051-.014.084-.06.084H3.052v.014c.028,0,.056-.003.084-.003.027,0,.053.002.08.003V5.43H3.208c-.05,0-.063-.022-.063-.078V5.081Zm.025.006-.026-.001L3.15,5.096v.257c.001.056.009.071.057.072h.014V5.45H3.218c-.028,0-.055-.003-.083-.003-.029,0-.058.003-.087.003H3.045V5.425h.012c.042,0,.054-.027.055-.078v-.27a.055.055,0,0,0-.056-.055H3.045V4.996h.003c.024,0,.05.003.074.003.019,0,.038-.003.059-.002l.282.317V5.078c0-.051-.034-.057-.053-.057H3.393V4.996h.003c.03,0,.06.003.09.003.026,0,.052-.003.079-.003h.003v.025H3.555c-.026.001-.054.003-.054.079v.291a.43094.43094,0,0,0,.004.064l.001.003H3.501Z"/>
							<path d="M3.659,5.031c-.048,0-.05.012-.06.058H3.58c.003-.018.006-.036.008-.054a.32839.32839,0,0,0,.004-.054h.015C3.612,5,3.628,5,3.646,5h.33c.017,0,.033-.001.035-.02l.015.003-.007.052c-.001.017-.001.035-.001.052l-.019.007c-.001-.024-.005-.062-.047-.062H3.847v.341c0,.049.022.055.053.055h.012v.019c-.025,0-.07-.003-.104-.003-.038,0-.083.003-.108.003V5.428h.012c.035,0,.053-.003.053-.054V5.032H3.659Z"/>
							<path d="M3.912,5.449c-.025,0-.07-.003-.104-.003-.038,0-.083.003-.108.003H3.697V5.424h.015c.035-.001.05-.001.05-.051V5.034H3.66V5.028h.108v.345c0,.051-.021.057-.056.057H3.703v.013c.025,0,.068-.002.106-.002.033,0,.076.002.102.002V5.43H3.902c-.031,0-.056-.008-.056-.058V5.028h.108c.043,0,.049.037.05.06l.014-.005c0-.017,0-.033.001-.05.002-.016.004-.033.007-.049l-.01-.002c-.003.019-.021.02-.037.019H3.646c-.015,0-.032-.001-.037-.019H3.598a.29589.29589,0,0,1-.004.052c-.002.018-.005.035-.007.051h.014c.008-.045.014-.059.062-.058v.006c-.047.001-.046.009-.057.056v.002H3.582V5.088c.003-.018.006-.036.008-.054a.32831.32831,0,0,0,.004-.054V4.978h.021V4.98c.004.016.016.016.033.017h.333c.018,0,.031-.001.032-.017V4.977l.003.001.018.003v.003c-.003.017-.005.034-.007.052-.001.017-.001.034-.001.052V5.09l-.002.001-.023.008V5.095c-.002-.024-.004-.059-.045-.059H3.854v.338c.001.048.02.052.05.052h.015v.025H3.912Z"/>
							<path d="M4.047,5.427h.009c.023,0,.047-.003.047-.036V5.055c0-.033-.024-.037-.047-.037H4.047V4.999c.039,0,.106.003.159.003.054,0,.12-.003.164-.003-.001.027,0,.07.001.098l-.019.005c-.003-.042-.011-.075-.078-.075H4.185v.168h.076c.038,0,.047-.022.051-.056h.019c-.001.025-.002.05-.002.075,0,.024.001.049.002.073l-.019.004c-.004-.038-.006-.063-.05-.063H4.185v.149c0,.042.037.042.078.042.077,0,.111-.005.13-.078l.018.004c-.008.034-.016.068-.022.102-.041,0-.115-.003-.172-.003-.058,0-.134.003-.17.003Z"/>
							<path d="M4.387,5.444c.006-.032.013-.065.021-.097l-.013-.003c-.019.072-.056.078-.132.078-.04,0-.081,0-.081-.044V5.226h.08c.045,0,.049.026.052.063l.014-.003c-.001-.024-.002-.047-.002-.071s.001-.048.002-.072H4.314c-.004.033-.014.057-.053.056H4.182V5.026h.092c.067,0,.078.034.081.074l.014-.004c-.001-.018-.002-.041-.002-.063a.281.281,0,0,1,.001-.03c-.044,0-.108.003-.161.003s-.117-.002-.157-.003v.014h.006c.023,0,.05.004.05.039v.336c0,.035-.027.039-.05.039H4.05v.013c.037,0,.111-.002.168-.002.056-.001.128.002.169.002m.003.005c-.041,0-.115-.003-.172-.003-.058,0-.134.003-.17.003H4.045V5.424h.012c.023,0,.044-.002.045-.034V5.054c0-.031-.021-.033-.045-.034H4.045V4.995h.003c.039,0,.106.003.159.003.054,0,.12-.003.164-.003h.003v.003l-.001.033c0,.022.001.046.002.065v.002l-.002.001-.022.006V5.102c-.004-.042-.009-.072-.075-.072H4.19v.162h.074c.037,0,.043-.019.048-.054V5.135h.025v.003c-.001.025-.002.05-.002.075,0,.024.001.049.002.073v.002l-.002.001-.022.004V5.29c-.004-.039-.005-.061-.047-.061H4.192v.147c0,.039.034.039.075.039.077,0,.108-.004.127-.076l.001-.003h.003l.021.005-.001.003c-.008.034-.016.068-.022.102l-.001.002H4.39Z"/>
							<path d="M4.58,5.216h.031c.064,0,.099-.024.099-.1a.08692.08692,0,0,0-.094-.093.22845.22845,0,0,0-.036.003Zm-.082-.149c0-.047-.026-.049-.046-.049H4.44V4.999c.021,0,.06.003.099.003.038,0,.069-.003.103-.003.081,0,.152.022.152.113a.12039.12039,0,0,1-.089.113l.109.164a.06971.06971,0,0,0,.062.038v.019c-.021,0-.042-.003-.063-.003-.02,0-.04.003-.06.003a1.75529,1.75529,0,0,1-.133-.208H4.578v.137c0,.049.023.051.052.051h.012v.019c-.037,0-.074-.003-.11-.003-.031,0-.061.003-.093.003V5.426h.012c.024,0,.046-.011.046-.035V5.067Z"/>
							<path d="M4.611,5.213c.063-.001.095-.023.096-.097a.08456.08456,0,0,0-.091-.091c-.017,0-.025.002-.034.002v.186Zm-.031.006H4.577V5.023h.002a.27387.27387,0,0,1,.037-.002.09028.09028,0,0,1,.096.096c0,.076-.037.102-.101.103H4.58Zm0,.017h.044l.001.001a1.96374,1.96374,0,0,0,.131.206c.02,0,.04-.003.06-.003s.04.002.06.003V5.429a.07617.07617,0,0,1-.062-.039l-.111-.167.003-.001a.118.118,0,0,0,.087-.11c0-.089-.069-.109-.15-.11-.034,0-.065.003-.103.003s-.076-.002-.097-.003v.014h.009c.02,0,.048.003.048.051v.325c0,.026-.024.037-.048.037H4.443v.013c.031,0,.06-.003.09-.003.036,0,.072.002.107.003V5.429H4.631c-.029,0-.055-.004-.055-.054v-.14H4.58Zm.298.213c-.021,0-.042-.003-.063-.003-.02,0-.04.003-.062.002a1.86106,1.86106,0,0,1-.133-.206H4.582v.134c.001.048.02.048.05.049h.014V5.45H4.643c-.037,0-.074-.003-.11-.003-.031,0-.061.003-.093.003H4.437V5.425h.015c.023,0,.043-.01.043-.032V5.068c0-.045-.023-.045-.043-.046H4.438V4.997h.003c.021,0,.06.003.099.003.038,0,.069-.003.103-.003.081,0,.155.022.155.115a.12185.12185,0,0,1-.088.114l.108.161a.06768.06768,0,0,0,.06.037H4.88v.024H4.878Z"/>
							<path d="M5.313,5.32l.001-.001v-.24a.05227.05227,0,0,0-.056-.06H5.244V5c.03,0,.059.003.09.003.026,0,.052-.003.079-.003v.019h-.01c-.027,0-.057.005-.057.081v.291a.4539.4539,0,0,0,.004.065H5.326l-.33-.368v.264c0,.056.011.075.06.075h.011v.019c-.028,0-.055-.003-.083-.003-.029,0-.058.003-.087.003V5.427h.009c.044,0,.058-.03.058-.081v-.27a.05734.05734,0,0,0-.058-.058H4.898V4.999c.024,0,.049.003.074.003.019,0,.038-.003.057-.003Z"/>
							<path d="M5.313,5.32l.002-.002Zm.013.133h.021a.41559.41559,0,0,1-.003-.062V5.1c0-.077.032-.084.06-.084h.007V5.002c-.025,0-.05.003-.076.003-.029,0-.058-.002-.087-.003v.014h.011a.05629.05629,0,0,1,.059.063l-.001.242-.001.001-.002.002-.285-.322c-.019,0-.038.003-.057.003-.024,0-.048-.002-.071-.003v.014h.006a.0603.0603,0,0,1,.061.06v.27c0,.051-.014.084-.06.084H4.902v.014c.028,0,.056-.002.084-.002.027,0,.053.002.08.002V5.431H5.058c-.05,0-.063-.022-.063-.078V5.082Zm.024.006-.026-.001-.325-.362v.257c.001.056.009.072.058.072h.014V5.45H5.068c-.028,0-.055-.003-.083-.003-.029,0-.058.003-.087.003H4.895V5.425h.012c.042,0,.054-.027.055-.079v-.27a.05477.05477,0,0,0-.055-.055H4.896V4.996h.003c.024,0,.049.003.074.003.019,0,.037-.003.059-.002l.282.317V5.078c0-.051-.034-.057-.053-.057H5.244V4.996h.003c.03,0,.06.003.09.003.026,0,.052-.003.079-.003h.003v.025H5.406c-.026.001-.054.003-.054.079v.291a.431.431,0,0,0,.004.064v.003H5.35Z"/>
							<path d="M5.609,5.071H5.608l-.06.181h.12Zm-.093.284a.28455.28455,0,0,0-.014.05c0,.019.027.022.048.022h.007v.019c-.026-.001-.052-.003-.078-.003q-.03451,0-.069.003V5.427h.004a.059.059,0,0,0,.056-.042l.103-.294a.60758.60758,0,0,0,.024-.08.31465.31465,0,0,0,.058-.028l.005-.001.005.002L5.671,5l.118.335c.008.022.015.046.024.065a.04085.04085,0,0,0,.042.026h.004v.019c-.029-.001-.058-.003-.088-.003-.031,0-.064.001-.096.003V5.426h.007c.015,0,.04-.003.04-.019a.20969.20969,0,0,0-.013-.046l-.025-.074H5.539Z"/>
							<path d="M5.607,5.072h0Zm-.055.178h.112l-.056-.172Zm-.007.005.061-.187h.003v.003h0V5.068h.002l.061.187Zm.131.188c.032-.001.063-.002.093-.002s.058.001.085.002V5.43H5.853a.04343.04343,0,0,1-.045-.027c-.008-.019-.016-.043-.024-.066l-.118-.335L5.66,4.987l-.001-.001H5.658l-.004.001a.23256.23256,0,0,1-.057.026.48665.48665,0,0,1-.024.08l-.102.294a.06116.06116,0,0,1-.058.044H5.412v.013c.022-.001.044-.002.066-.002.025,0,.05.001.075.002V5.431H5.549c-.021,0-.05-.003-.051-.025a.26873.26873,0,0,1,.014-.051l.003.001-.003-.001.021-.068h.149l.026.076a.21448.21448,0,0,1,.013.047c-.001.02-.028.021-.043.021H5.674v.012Zm.181.006c-.029-.001-.058-.003-.088-.003q-.0465,0-.096.003H5.67V5.424h.01c.015,0,.037-.003.037-.016a.22206.22206,0,0,0-.013-.045L5.68,5.291H5.539l-.02.065a.33875.33875,0,0,0-.014.049c0,.016.024.019.045.019h.01v.025H5.557c-.026-.001-.052-.003-.077-.003q-.0345,0-.069.003H5.408V5.424h.007a.05485.05485,0,0,0,.053-.04l.103-.294a.75755.75755,0,0,0,.025-.081.40182.40182,0,0,0,.058-.027L5.66,4.98l.007.004L5.673,5l.118.335c.008.022.015.046.024.065a.03733.03733,0,0,0,.04.024h.007v.025Z"/>
							<path d="M5.885,5.031c-.048,0-.05.012-.06.058H5.806c.003-.018.006-.036.008-.054a.32731.32731,0,0,0,.004-.054h.015C5.838,5,5.854,5,5.871,5h.331c.017,0,.033-.001.035-.02l.015.003-.007.052c-.001.017-.001.035-.001.052l-.019.007c-.001-.024-.004-.062-.047-.062H6.073v.341c0,.049.022.055.053.055h.012v.019c-.025,0-.07-.003-.104-.003-.038,0-.083.003-.108.003V5.428h.012c.035,0,.053-.003.053-.054V5.032H5.885Z"/>
							<path d="M6.138,5.449c-.025,0-.07-.003-.104-.003-.038,0-.083.003-.108.003H5.923V5.424h.015c.035-.001.049-.001.05-.051V5.034H5.886V5.028h.108v.345c0,.051-.021.056-.056.057H5.929v.014c.025,0,.068-.003.106-.003.033,0,.076.002.102.003V5.43H6.128c-.031,0-.056-.008-.056-.058V5.028H6.18c.043,0,.049.037.05.06l.014-.005c0-.017,0-.033.001-.05.002-.016.004-.033.007-.049l-.01-.002c-.003.019-.021.02-.037.019H5.871c-.015,0-.031-.001-.037-.019h-.01a.29589.29589,0,0,1-.004.052c-.002.018-.005.035-.007.051h.014c.008-.045.014-.059.062-.058v.006c-.048.001-.046.009-.057.056v.002H5.807V5.088c.003-.018.006-.036.008-.054a.32723.32723,0,0,0,.004-.054V4.978h.02l.001.002c.004.016.016.016.033.017h.334c.018,0,.031-.001.032-.017V4.977l.003.001.018.003v.003c-.003.017-.005.034-.007.052-.001.017-.001.034-.001.052V5.09l-.002.001-.023.008V5.095c-.002-.024-.004-.059-.045-.059H6.08v.338c.001.048.02.052.05.052h.015v.025H6.138Z"/>
							<path d="M6.276,5.427h.009c.023,0,.047-.003.047-.036V5.055c0-.033-.024-.037-.047-.037H6.276V4.999c.025,0,.063.003.095.003s.071-.003.101-.003v.019H6.463c-.023,0-.048.003-.048.037v.336c0,.033.024.036.048.036h.009v.019c-.031,0-.069-.003-.101-.003-.031,0-.069.003-.094.003V5.427Z"/>
							<path d="M6.469,5.444V5.43H6.463c-.023,0-.05-.004-.05-.039V5.055c0-.035.027-.039.05-.039h.006V5.002c-.03,0-.067.003-.098.003-.03,0-.067-.002-.092-.003v.014h.006c.023,0,.05.004.05.039v.336c0,.035-.027.039-.05.039H6.279v.014c.025,0,.061-.002.091-.002.031-.001.068.001.099.002m.002.005c-.031,0-.069-.003-.101-.003-.031,0-.069.003-.094.003H6.273V5.424h.012c.023,0,.044-.002.044-.034V5.054c0-.031-.021-.033-.044-.034H6.273V4.995h.003c.025,0,.064.003.095.003.032,0,.07-.003.101-.003h.003V5.02H6.463c-.023,0-.044.003-.045.034V5.39c0,.031.021.033.045.034h.012v.025Z"/>
							<path d="M6.737,5.428c.124,0,.146-.11.146-.203,0-.094-.05-.207-.157-.207-.112,0-.145.1-.145.186-.001.114.052.224.156.224m-.01-.438a.22434.22434,0,0,1,.245.221.235.235,0,0,1-.242.245.22644.22644,0,0,1-.24-.23.23411.23411,0,0,1,.237-.236"/>
							<path d="M6.577,5.204c0-.086.034-.189.148-.189.109,0,.159.116.16.21,0,.093-.022.206-.149.206V5.425c.122,0,.143-.107.143-.2s-.05-.204-.154-.204c-.11,0-.142.098-.143.183,0,.114.052.221.154.221v.006c-.106-.001-.158-.112-.159-.227m-.089.022a.23587.23587,0,0,1,.239-.239v.006a.23054.23054,0,0,0-.234.234.22328.22328,0,0,0,.237.227.23213.23213,0,0,0,.239-.243.22148.22148,0,0,0-.243-.218V4.987a.22748.22748,0,0,1,.248.224.23766.23766,0,0,1-.245.248.22907.22907,0,0,1-.241-.233"/>
							<path d="M7.404,5.32l.001-.001v-.24a.05265.05265,0,0,0-.056-.06H7.335V5c.03,0,.059.003.09.003.026,0,.053-.003.079-.003v.019h-.01c-.027,0-.057.005-.057.081v.291a.45538.45538,0,0,0,.004.065H7.417l-.33-.368v.264c0,.056.011.075.06.075h.011v.019c-.028,0-.055-.003-.083-.003-.029,0-.058.003-.087.003V5.427h.009c.044,0,.058-.03.058-.081v-.27a.05734.05734,0,0,0-.058-.058H6.989V4.999c.024,0,.049.003.074.003.019,0,.038-.003.057-.003Z"/>
							<path d="M7.404,5.32l.002-.002Zm.013.133h.021a.417.417,0,0,1-.003-.062V5.1c0-.077.032-.084.06-.084h.007V5.002c-.025,0-.051.003-.076.003-.029,0-.058-.002-.087-.003v.014H7.35a.05564.05564,0,0,1,.058.063l-.001.242-.001.001-.002.002-.285-.322c-.019,0-.038.003-.057.003-.024,0-.048-.002-.071-.003v.014h.006a.0603.0603,0,0,1,.061.06v.27c0,.051-.014.084-.06.084H6.992v.014c.028,0,.056-.002.084-.002.027,0,.053.002.08.002V5.431H7.148c-.05,0-.063-.022-.063-.078V5.082Zm.024.006-.027-.001-.325-.362v.257c.001.056.009.071.057.072H7.16V5.45H7.157c-.028,0-.055-.003-.083-.003-.029,0-.058.003-.087.003H6.984V5.425h.012c.042,0,.054-.027.055-.078v-.27a.055.055,0,0,0-.056-.055H6.984V4.997h.003c.025,0,.05.003.074.003.019,0,.037-.003.059-.002l.281.317V5.079c0-.051-.034-.057-.053-.057H7.331V4.997h.003c.03,0,.06.003.09.003.026,0,.052-.003.079-.003h.003v.025H7.493c-.026.001-.054.003-.054.079v.291a.32841.32841,0,0,0,.004.064l.001.003Z"/>
							<path d="M7.7,5.071H7.699l-.06.181h.12Zm-.093.284a.28544.28544,0,0,0-.014.05c0,.019.027.022.048.022h.007v.019c-.026-.001-.052-.003-.078-.003q-.0345,0-.069.003V5.427h.004a.059.059,0,0,0,.056-.042l.103-.294a.6091.6091,0,0,0,.024-.08.28589.28589,0,0,0,.058-.028l.005-.001.004.002L7.761,5l.118.335c.008.022.015.046.024.065a.04085.04085,0,0,0,.042.026h.004v.019c-.029-.001-.058-.003-.088-.003q-.0465,0-.096.003V5.426h.007c.015,0,.04-.003.04-.019a.21027.21027,0,0,0-.013-.046l-.025-.074H7.629Z"/>
							<path d="M7.698,5.072h0Zm-.055.178h.112l-.056-.172Zm-.007.005.061-.187H7.7v.003h0V5.068h.002l.061.187Zm.13.189c.032-.001.063-.002.093-.002s.058.001.086.002V5.431H7.944a.04345.04345,0,0,1-.045-.027c-.008-.019-.016-.043-.024-.065l-.118-.335-.005-.015-.001-.001H7.75l-.004.001a.23239.23239,0,0,1-.057.026.60817.60817,0,0,1-.024.08l-.103.294a.06116.06116,0,0,1-.058.044H7.503v.013c.022-.001.044-.002.066-.002.025,0,.05.001.075.002V5.433H7.64c-.021,0-.05-.003-.051-.025a.26955.26955,0,0,1,.014-.051l.003.001-.003-.001.021-.068h.149l.026.076a.21462.21462,0,0,1,.013.047c-.001.02-.028.021-.042.021H7.766v.011Zm.182.005c-.029-.001-.058-.003-.088-.003q-.0465,0-.096.003H7.761V5.424h.01c.015,0,.037-.003.037-.016a.22275.22275,0,0,0-.013-.045l-.024-.072H7.63l-.02.065a.33743.33743,0,0,0-.014.049c0,.016.024.02.045.02h.01V5.45H7.648c-.026-.001-.052-.003-.077-.003q-.03451,0-.069.003H7.499V5.425h.007a.05486.05486,0,0,0,.053-.04l.102-.294a.75527.75527,0,0,0,.025-.081.31465.31465,0,0,0,.058-.028l.006-.001.007.004.006.016.118.335c.008.022.015.046.024.065a.03806.03806,0,0,0,.04.024h.007V5.45Z"/>
							<path d="M8.11,5.384c0,.026.018.033.038.036a.48663.48663,0,0,0,.085-.001.08879.08879,0,0,0,.061-.035.15326.15326,0,0,0,.02-.046h.019c-.007.037-.016.072-.024.109-.056,0-.113-.003-.169-.003s-.113.003-.169.003V5.428H7.98c.023,0,.048-.003.048-.043V5.056c0-.033-.025-.037-.048-.037H7.971V5c.034,0,.067.003.101.003.033,0,.065-.003.097-.003v.019H8.153c-.024,0-.043.001-.043.035Z"/>
							<path d="M8.306,5.444c.007-.035.016-.069.023-.103H8.316a.14847.14847,0,0,1-.02.045.09686.09686,0,0,1-.063.036.41537.41537,0,0,1-.049.003l-.036-.001c-.021-.002-.041-.011-.041-.039v-.33c0-.036.023-.037.046-.037h.013V5.004c-.032,0-.063.003-.095.003-.033,0-.066-.002-.098-.003v.014h.006c.023,0,.051.004.051.039v.329c0,.041-.028.046-.051.046H7.973v.014c.055,0,.111-.002.166-.002.056-.003.112,0,.167,0m.003.005c-.056,0-.113-.003-.169-.003s-.113.003-.169.003H7.968V5.424H7.98c.023-.001.045-.002.045-.04V5.055c0-.031-.022-.033-.045-.034H7.968V4.996h.003c.034,0,.067.003.101.003.033,0,.065-.003.097-.003h.003v.025H8.153c-.025.001-.04,0-.041.032v.33c0,.024.016.03.036.033.011.001.023.001.035.001a.41746.41746,0,0,0,.049-.003.09087.09087,0,0,0,.06-.033.12429.12429,0,0,0,.019-.045l.001-.002h.024l-.001.003c-.007.037-.016.072-.024.109l-.001.002H8.309Z"/>
							<path d="M8.314,5.049h.008c.009,0,.013-.007.013-.017,0-.011-.006-.015-.013-.015H8.314Zm-.023.035V5.081c.008-.001.01-.001.01-.006v-.05c0-.007-.001-.009-.01-.009V5.013h.035c.012,0,.023.006.023.018a.02134.02134,0,0,1-.016.02l.011.015a.0586.0586,0,0,0,.015.016v.002H8.346c-.006,0-.012-.013-.024-.031H8.314v.022c0,.004.002.004.01.005v.003H8.291Zm.034.019a.055.055,0,1,0-.053-.055.05256.05256,0,0,0,.053.055m0-.122a.0675.0675,0,0,1,0,.135.0675.0675,0,0,1,0-.135"/>
						</g>
					</g>
				</g>
			</g>
		</symbol>
		<symbol id="paytm" viewBox="0 0 11.146 6.972">
			<g id="Layer_2" data-name="Layer 2">
				<g id="Layer_1-2" data-name="Layer 1">
					<g>
						<path d="M10.571,6.897H.575a.50018.50018,0,0,1-.5-.5V.575a.50018.50018,0,0,1,.5-.5h9.996a.50018.50018,0,0,1,.5.5V6.397A.50018.50018,0,0,1,10.571,6.897Z" fill="#fff" stroke="#1e398d" stroke-miterlimit="10" stroke-width="0.15"/>
						<path d="M1.34,2.676a.08338.08338,0,0,1,.089-.089h.865a.4806.4806,0,0,1,.469.521v.481a.65626.65626,0,0,1-.025.201.48738.48738,0,0,1-.481.363H1.886v.589c0,.044-.037.066-.082.066h-.39a.07458.07458,0,0,1-.082-.08L1.34,2.676Z" fill="#1e398d"/>
						<path d="M1.89,3.133h.23a.09388.09388,0,0,1,.094.094v.278A.0954.0954,0,0,1,2.12,3.6H1.89V3.133Z" fill="#fff"/>
						<path d="M3.19,2.59h.605a.515.515,0,0,1,.541.592V4.609a.212.212,0,0,1-.207.195H3.336a.45744.45744,0,0,1-.439-.371,2.85448,2.85448,0,0,1-.01-.57.51886.51886,0,0,1,.492-.554h.323c.094-.005.09-.21,0-.203H3.198a.08362.08362,0,0,1-.092-.079V2.653c-.001-.048.038-.063.084-.063Z" fill="#1e398d"/>
						<path d="M3.523,3.824h.185a.07982.07982,0,0,1,.079.079v.321a.07917.07917,0,0,1-.079.079H3.523a.07916.07916,0,0,1-.079-.079V3.903a.0798.0798,0,0,1,.079-.079Z" fill="#fff"/>
						<path d="M4.521,2.691v.902a.55231.55231,0,0,0,.552.494h.255c.106,0,.099.177,0,.177H4.776c-.06,0-.082.031-.082.084v.397a.07083.07083,0,0,0,.075.07h.512a.59076.59076,0,0,0,.67-.664V2.656a.06006.06006,0,0,0-.06-.068H5.462c-.04,0-.063.043-.063.075v.82a.04979.04979,0,0,1-.051.056H5.145a.06387.06387,0,0,1-.072-.07V2.678c0-.052-.021-.091-.079-.091H4.581c-.048-.001-.06.045-.06.104Z" fill="#1e398d"/>
						<path d="M6.166,3.062v-.39a.076.076,0,0,1,.076-.076h.094c.242-.05.299-.192.447-.352.091-.098.171-.124.229-.02v.372h.222a.076.076,0,0,1,.076.076v.39a.076.076,0,0,1-.076.076H7.012V4.735a.076.076,0,0,1-.076.076h-.39a.076.076,0,0,1-.076-.076V3.138H6.242a.07662.07662,0,0,1-.076-.076Z" fill="#00aeef"/>
						<path d="M8.928,4.71a.09475.09475,0,0,1-.095.094H8.468a.09412.09412,0,0,1-.095-.094V3.243c.003-.159-.316-.183-.316,0V4.709a.09475.09475,0,0,1-.095.094H7.597a.09475.09475,0,0,1-.095-.094V2.676a.09561.09561,0,0,1,.095-.095h.365a.095.095,0,0,1,.095.095v.028a.56647.56647,0,0,1,.78.04.56854.56854,0,0,1,.976.42c0,.515-.005,1.025-.005,1.545a.09475.09475,0,0,1-.095.094H9.348a.09475.09475,0,0,1-.095-.094V3.252c-.021-.203-.328-.156-.328,0-.001.485.003.969.003,1.458Z" fill="#00aeef"/>
					</g>
				</g>
			</g>
		</symbol>
		<!--- footer-header icons -->
		<symbol id="delivery" viewBox="0 0 16.16344 16.45406">
			<g id="Layer_2" data-name="Layer 2">
				<g id="Layer_1-2" data-name="Layer 1">
					<g>
						<circle cx="8.32458" cy="7.6516" r="7.65106" transform="translate(-2.98106 7.81975) rotate(-43.44002)" fill="#e9e9ea"/>
						<polyline points="6.051 12.207 6.467 15.419 5.6 15.814 4.078 13.278" fill="#e9e9ea" stroke="#2a5183" stroke-miterlimit="10"/>
						<polyline points="4.247 10.403 1.035 9.987 0.64 10.854 3.176 12.376" fill="#e9e9ea" stroke="#2a5183" stroke-miterlimit="10"/>
						<polygon points="11.593 6.346 8.411 9.476 10.44 11.505 12.495 15.363 13.411 15.349 11.593 6.346" fill="#a8d2f0" stroke="#2a5183" stroke-miterlimit="10"/>
						<polygon points="1.106 3.043 1.091 3.959 4.949 6.014 6.978 8.043 10.108 4.861 1.106 3.043" fill="#a8d2f0" stroke="#2a5183" stroke-miterlimit="10"/>
						<path d="M15.5191.935c-.496-.496-2.209.406-2.705.902L4.7871,9.864c-.537.537-2.878,3.611-2.343,4.147.535.535,3.61-1.806,4.147-2.343l8.027-8.027C15.1131,3.144,16.0151,1.431,15.5191.935Z" fill="#fff" stroke="#2a5183" stroke-miterlimit="10"/>
						<line x1="11.6481" y1="10.53596" x2="8.2661" y2="13.91696" fill="none" stroke="#2a5183" stroke-miterlimit="10"/>
					</g>
				</g>
			</g>
		</symbol>
		<symbol id="securePay" viewBox="0 0 17.301 18.041">
			<g id="Layer_2" data-name="Layer 2">
				<g id="Layer_1-2" data-name="Layer 1">
					<g>
						<g>
							<path d="M11.63,8.151h-.703V4.954a4.251,4.251,0,0,0-8.502,0V8.15H1.722V4.954a4.954,4.954,0,0,1,9.908,0Z" fill="#526164"/>
							<g>
								<path d="M6.854,17.69H6.499A6.14793,6.14793,0,0,1,.351,11.542V6.045H13.003v5.496A6.149,6.149,0,0,1,6.854,17.69Z" fill="#f5864e"/>
								<path d="M6.925,18.041H6.428A6.43538,6.43538,0,0,1,0,11.612V5.694H13.354v5.919A6.436,6.436,0,0,1,6.925,18.041ZM.702,6.397v5.216a5.73291,5.73291,0,0,0,5.726,5.726h.497a5.73291,5.73291,0,0,0,5.726-5.726V6.397Z" fill="#526164"/>
							</g>
							<path d="M8.106,12.127a1.42908,1.42908,0,1,0-2.12,1.25v1.315a.69053.69053,0,0,0,.691.691h0a.69053.69053,0,0,0,.691-.691V13.377A1.427,1.427,0,0,0,8.106,12.127Z" fill="#526164"/>
						</g>
						<g>
							<g>
								<circle cx="12.76158" cy="6.64731" r="4.18696" fill="#ffd581"/>
								<path d="M12.762,11.187a4.539,4.539,0,1,1,4.539-4.539A4.54454,4.54454,0,0,1,12.762,11.187Zm0-8.375a3.836,3.836,0,1,0,3.836,3.836A3.84057,3.84057,0,0,0,12.762,2.812Z" fill="#526164"/>
							</g>
							<polygon points="12.027 8.514 10.653 7.14 11.316 6.477 12.027 7.189 14.313 4.903 14.976 5.566 12.027 8.514" fill="#526164"/>
						</g>
					</g>
				</g>
			</g>
		</symbol>
		<symbol id="support" viewBox="0 0 18.104 15.722">
			<g id="Layer_2" data-name="Layer 2">
				<g id="Layer_1-2" data-name="Layer 1">
					<g>
						<g>
							<path d="M18.104,12.403H14.783v-.57h2.751V4.54a3.971,3.971,0,1,0-7.942,0V7.736h-.57V4.54a4.54,4.54,0,0,1,9.08,0v7.863Z" fill="#526164"/>
							<g>
								<path d="M15.263,9.26h.882a1.674,1.674,0,0,0,1.674-1.674h0a1.674,1.674,0,0,0-1.674-1.674h-.882Z" fill="#70c5a0"/>
								<path d="M16.211,9.545H14.978V5.626h1.233a1.89489,1.89489,0,0,1,1.893,1.893v.132A1.89575,1.89575,0,0,1,16.211,9.545Zm-.663-.57h.663a1.32557,1.32557,0,0,0,1.324-1.324V7.519a1.32557,1.32557,0,0,0-1.324-1.324h-.663Z" fill="#526164"/>
							</g>
							<g>
								<path d="M11.865,9.26h-.882A1.674,1.674,0,0,1,9.309,7.586h0a1.674,1.674,0,0,1,1.674-1.674h.882Z" fill="#70c5a0"/>
								<path d="M12.15,9.545H10.918A1.89489,1.89489,0,0,1,9.025,7.652V7.52a1.89489,1.89489,0,0,1,1.893-1.893H12.15ZM10.917,6.196A1.32557,1.32557,0,0,0,9.593,7.52v.132a1.32557,1.32557,0,0,0,1.324,1.324h.663V6.196Z" fill="#526164"/>
							</g>
							<rect x="14.171" y="11.387" width="1.882" height="1.015" fill="#526164"/>
						</g>
						<g>
							<g>
								<path d="M2.543,3.564A2.25808,2.25808,0,0,0,.285,5.822v6.623H2.581v2.649l3.028-2.649h5.992a2.25807,2.25807,0,0,0,2.258-2.258V3.564Z" fill="#80d2ed"/>
								<path d="M2.296,15.722V12.73H0V5.822A2.54616,2.54616,0,0,1,2.543,3.279h11.6v6.908A2.54616,2.54616,0,0,1,11.6,12.73H5.715ZM.569,12.161H2.865v2.306l2.636-2.306H11.6a1.97513,1.97513,0,0,0,1.973-1.973V3.849H2.543A1.97513,1.97513,0,0,0,.57,5.822v6.339Z" fill="#526164"/>
							</g>
							<g>
								<circle cx="3.539" cy="7.916" r="0.934" fill="#526164"/>
								<circle cx="7.071" cy="7.916" r="0.934" fill="#526164"/>
								<circle cx="10.604" cy="7.916" r="0.934" fill="#526164"/>
							</g>
						</g>
					</g>
				</g>
			</g>
		</symbol>
		<symbol id="app" viewBox="0 0 46.10811 18">
			<g id="Layer_2" data-name="Layer 2">
				<g id="Layer_1-2" data-name="Layer 1">
					<g>
						<a href="//apple.co/2IWwV6Y" target="_blank">
							<g id="Layer_2-2" data-name="Layer 2">
								<g id="Layer_1-2-2" data-name="Layer 1-2">
									<g>
										<circle cx="37.10811" cy="9" r="9" fill="#8c8c8c"/>
										<path d="M41.79711,7.121a1.75575,1.75575,0,0,0-.957.889,2.85469,2.85469,0,0,0-.383,1.381,2.98359,2.98359,0,0,0,.438,1.572,1.90858,1.90858,0,0,0,1.176.916,5.90161,5.90161,0,0,1-.725,1.518,4.39268,4.39268,0,0,1-1.025,1.162,1.89077,1.89077,0,0,1-1.094.301,2.89642,2.89642,0,0,1-1.012-.219,1.96681,1.96681,0,0,0-.848-.246,3.85242,3.85242,0,0,0-1.094.328,3.06213,3.06213,0,0,1-.711.137,2.16384,2.16384,0,0,1-1.34-.547,6.51511,6.51511,0,0,1-1.531-2.215,6.76581,6.76581,0,0,1-.547-2.68,4.1373,4.1373,0,0,1,.834-2.557,2.5486,2.5486,0,0,1,2.119-1.107,2.9053,2.9053,0,0,1,1.313.301,1.69768,1.69768,0,0,0,.93.301,2.27236,2.27236,0,0,0,.848-.164,4.92862,4.92862,0,0,1,1.422-.438,2.43878,2.43878,0,0,1,1.668.629A2.54508,2.54508,0,0,1,41.79711,7.121Zm-4.757-1.285a2.7344,2.7344,0,0,1,.684-1.723,2.85537,2.85537,0,0,1,1.668-.902,2.79,2.79,0,0,1-.656,1.832A2.265,2.265,0,0,1,37.04011,5.836Z" fill="#fff"/>
									</g>
								</g>
							</g>
						</a>
						<a href="//goo.gl/hqAfjL" target="_blank">
							<g id="Layer_2-3" data-name="Layer 2">
								<g id="Layer_1-2-3" data-name="Layer 1-2">
									<g>
										<circle cx="9" cy="9" r="9" fill="#a4c443"/>
										<path d="M4.219,7.248a.76361.76361,0,0,1,1.054,0,.71191.71191,0,0,1,.223.539v3.492a.74532.74532,0,0,1-1.277.527.7232.7232,0,0,1-.223-.527V7.787A.70839.70839,0,0,1,4.219,7.248Zm6.551-3.14a2.83319,2.83319,0,0,1,1.219,2.414h-6A2.85586,2.85586,0,0,1,7.231,4.108l-.656-.656a.20474.20474,0,0,1-.012-.34A.23684.23684,0,0,1,6.926,3.1l.75.75a2.72337,2.72337,0,0,1,1.313-.328,2.85947,2.85947,0,0,1,1.336.328l.727-.75a.23685.23685,0,0,1,.363.012.20475.20475,0,0,1-.012.34ZM5.988,12.029V7.037h6v4.992a.48187.48187,0,0,1-.47048.493q-.01125.00027-.02252,0h-.492V14.28a.71765.71765,0,0,1-.223.527.73692.73692,0,0,1-.539.223.69283.69283,0,0,1-.527-.223.744.744,0,0,1-.211-.527V12.522H8.495V14.28a.75.75,0,1,1-1.5,0V12.522H6.503a.51425.51425,0,0,1-.363-.141A.46086.46086,0,0,1,5.988,12.029ZM8.004,5.537V5.022H7.488v.516h.516Zm2.484,0V5.022H9.996v.516h.492Zm2.227,1.711a.71377.71377,0,0,1,.527-.211.75283.75283,0,0,1,.539.211.71187.71187,0,0,1,.223.539v3.492a.71769.71769,0,0,1-.223.527.73688.73688,0,0,1-.539.223.69283.69283,0,0,1-.527-.223.744.744,0,0,1-.211-.527V7.787A.72869.72869,0,0,1,12.715,7.248Z" fill="#fff"/>
									</g>
								</g>
							</g>
						</a>
					</g>
				</g>
			</g>
		</symbol>
		<!-- social icons -->
		<symbol id="facebook" viewBox="0 0 18 18">
			<g id="Layer_2" data-name="Layer 2">
				<g id="Layer_1-2" data-name="Layer 1">
					<g>
						<path d="M18,9A9,9,0,1,1,9,0a9.00072,9.00072,0,0,1,9,9Z" fill="#3c5a9a"/>
						<path d="M11.262,9.352H9.656v5.883H7.223V9.352H6.066V7.284H7.223V5.946A2.28119,2.28119,0,0,1,9.678,3.491l1.802.008V5.506H10.173a.49469.49469,0,0,0-.516.563V7.286h1.819Z" fill="#fff"/>
					</g>
				</g>
			</g>
		</symbol>
		<!-- <symbol id="instagram"
		xmlns="http://www.w3.org/2000/svg"
		xmlns:xlink="http://www.w3.org/1999/xlink" viewBox="0 0 18 18.001"><defs><linearGradient id="linear-gradient" y1="30.551" x2="18" y2="30.551" gradientTransform="matrix(1, 0, 0, -1, 0, 39.552)" gradientUnits="userSpaceOnUse"><stop offset="0" stop-color="#ffeb00"/><stop offset="0.4744" stop-color="#ec2390"/><stop offset="1" stop-color="#36499e"/></linearGradient><linearGradient id="linear-gradient-2" x1="9.00099" y1="21.551" x2="9.00099" y2="39.552" xlink:href="#linear-gradient"/></defs><g id="Layer_2" data-name="Layer 2"><g id="Layer_1-2" data-name="Layer 1"><g><circle cx="9" cy="9.001" r="9" fill="url(#linear-gradient)"/><path id="SVGID" d="M18,9.001a8.96273,8.96273,0,0,1-1.252,4.582,9.00794,9.00794,0,0,1-7.453,4.413c-.098.003-.196.005-.294.005s-.197-.002-.294-.005A8.954,8.954,0,0,1,3.128,15.82a9.05682,9.05682,0,0,1-1.912-2.302A9.00159,9.00159,0,1,1,18,9.001Z" fill="url(#linear-gradient-2)"/><rect id="SVGID-2" data-name="SVGID" y="0.001" width="18" height="18" fill="none"/><path d="M12.996,4.038a.97407.97407,0,0,1,.715.293.94648.94648,0,0,1,.293.691v8.016a.94486.94486,0,0,1-.293.691.9741.9741,0,0,1-.715.293H5.004a.97407.97407,0,0,1-.715-.293.94648.94648,0,0,1-.293-.691V5.023a.94486.94486,0,0,1,.293-.691.9741.9741,0,0,1,.715-.293h7.992Zm-7.758,9h7.5a.228.228,0,0,0,.258-.258V8.538H11.941a3.08205,3.08205,0,0,1,.047.492,3.00109,3.00109,0,0,1-3,3,3.00108,3.00108,0,0,1-3-3,2.52045,2.52045,0,0,1,.047-.492H5.004V12.78Q5.004,13.038,5.238,13.038Zm5.18-5.414a2.00863,2.00863,0,0,0-2.836,0A1.992,1.992,0,0,0,9,11.022a1.98843,1.98843,0,0,0,1.418-3.398Zm2.578-1.336V5.28a.228.228,0,0,0-.258-.258h-.984a.228.228,0,0,0-.258.258V6.288q0,.234.258.234h.984C12.91,6.523,12.996,6.444,12.996,6.288Z" fill="#fff"/></g></g></g></symbol> -->
		<symbol id="instagram" viewBox="0 0 512 512.00038"
			xmlns:xlink="http://www.w3.org/1999/xlink">
			<radialGradient id="a" cx="104.9571229418" cy="447.4474330468" gradientUnits="userSpaceOnUse" r="564.64588968">
				<stop offset="0" stop-color="#fae100"/>
				<stop offset=".0544" stop-color="#fadc04"/>
				<stop offset=".1167" stop-color="#fbce0e"/>
				<stop offset=".1829" stop-color="#fcb720"/>
				<stop offset=".2514" stop-color="#fe9838"/>
				<stop offset=".3054" stop-color="#ff7950"/>
				<stop offset=".4922" stop-color="#ff1c74"/>
				<stop offset="1" stop-color="#6c1cd1"/>
			</radialGradient>
			<linearGradient id="b" gradientUnits="userSpaceOnUse" x1="196.3726539866" x2="-671.0159540134" y1="222.4596783332" y2="-265.4464136668">
				<stop offset="0" stop-color="#a1b5d8" stop-opacity="0"/>
				<stop offset=".3094" stop-color="#90a2bd" stop-opacity=".309804"/>
				<stop offset=".7554" stop-color="#7c8b9c" stop-opacity=".756863"/>
				<stop offset="1" stop-color="#748290"/>
			</linearGradient>
			<linearGradient id="c" gradientUnits="userSpaceOnUse" x1="256.0003" x2="256.0003" y1="451.9660859688" y2="531.773969673">
				<stop offset="0" stop-color="#fae100" stop-opacity="0"/>
				<stop offset=".3068" stop-color="#fca800" stop-opacity=".305882"/>
				<stop offset=".6275" stop-color="#fe7300" stop-opacity=".627451"/>
				<stop offset=".8685" stop-color="#ff5200" stop-opacity=".866667"/>
				<stop offset="1" stop-color="#ff4500"/>
			</linearGradient>
			<linearGradient id="d">
				<stop offset="0" stop-color="#833ab4" stop-opacity="0"/>
				<stop offset="1" stop-color="#833ab4"/>
			</linearGradient>
			<linearGradient id="e" gradientUnits="userSpaceOnUse" x1="226.8724066998" x2="100.1606848024" xlink:href="#d" y1="226.147987369" y2="99.4361650794"/>
			<linearGradient id="f" gradientUnits="userSpaceOnUse" x1="350.899540777" x2="287.6555669352" xlink:href="#d" y1="468.287448276" y2="170.1375727138"/>
			<linearGradient id="g" gradientUnits="userSpaceOnUse" x1="374.965057" x2="120.9410670648" xlink:href="#d" y1="374.9649673922" y2="120.9408770648"/>
			<linearGradient id="h" gradientUnits="userSpaceOnUse" x1="393.806665096" x2="309.8058007666" xlink:href="#d" y1="221.2631037014" y2="137.2623397642"/>
			<linearGradient id="i" gradientUnits="userSpaceOnUse" x1="357.6582448576" x2="150.5426107646" y1="155.0495285836" y2="362.1651626766">
				<stop offset="0" stop-color="#833ab4"/>
				<stop offset=".0922" stop-color="#9c3495"/>
				<stop offset=".2927" stop-color="#dc2546"/>
				<stop offset=".392" stop-color="#fd1d1d"/>
				<stop offset=".5589" stop-color="#fc6831"/>
				<stop offset=".6887" stop-color="#fc9b40"/>
				<stop offset=".7521" stop-color="#fcaf45"/>
				<stop offset=".7806" stop-color="#fdb750"/>
				<stop offset=".8656" stop-color="#fecb6a"/>
				<stop offset=".9415" stop-color="#ffd87a"/>
				<stop offset="1" stop-color="#ffdc80"/>
			</linearGradient>
			<path d="m503.234375 91.578125c-4.660156-43.664063-39.144531-78.15625-82.8125-82.8125-109.507813-11.6875-219.335937-11.6875-328.839844 0-43.667969 4.660156-78.15625 39.148437-82.816406 82.8125-11.6875 109.503906-11.6875 219.335937 0 328.839844 4.660156 43.667969 39.148437 78.15625 82.8125 82.816406 109.503906 11.6875 219.335937 11.6875 328.84375 0 43.667969-4.660156 78.152344-39.148437 82.8125-82.816406 11.6875-109.503907 11.6875-219.332031 0-328.839844zm0 0" fill="url(#a)"/>
			<path d="m475.386719 110.097656c-4.132813-38.746094-34.734375-69.351562-73.484375-73.488281-97.171875-10.367187-194.632813-10.367187-291.804688 0-38.746094 4.136719-69.351562 34.742187-73.488281 73.488281-10.367187 97.171875-10.367187 194.632813 0 291.800782 4.136719 38.75 34.742187 69.355468 73.488281 73.488281 97.171875 10.371093 194.632813 10.371093 291.800782 0 38.75-4.132813 69.355468-34.738281 73.488281-73.488281 10.371093-97.167969 10.371093-194.628907 0-291.800782zm0 0" fill="url(#b)"/>
			<path d="m7.671875 409.804688c.351563 3.539062.714844 7.078124 1.09375 10.617187 4.660156 43.664063 39.148437 78.152344 82.816406 82.8125 109.503907 11.6875 219.335938 11.6875 328.839844 0 43.667969-4.660156 78.152344-39.148437 82.8125-82.8125.378906-3.539063.742187-7.078125 1.097656-10.617187zm0 0" fill="url(#c)"/>
			<path d="m503.234375 420.417969c6.28125-58.839844 9.179687-117.773438 8.710937-176.699219l-117.03125-117.03125c-14.621093-16.691406-35.976562-27.109375-61.070312-28.011719-51.605469-1.859375-103.375-1.765625-154.988281.007813-42.867188 1.476562-72.84375 30.289062-80.53125 72.636718-1.355469 7.476563-2.167969 15.050782-3.234375 22.582032v124.148437c.589844 4.023438 1.457031 8.027344 1.726562 12.074219 1.71875 25.757812 12.304688 47.820312 29.253906 62.746094l119.09375 119.089844c58.445313.410156 116.894532-2.496094 175.257813-8.726563 43.667969-4.660156 78.152344-39.148437 82.8125-82.816406zm0 0" fill="url(#e)"/>
			<path d="m503.234375 420.421875c-4.65625 43.660156-39.152344 78.15625-82.8125 82.8125-58.355469 6.226563-116.816406 9.136719-175.253906 8.726563l-118.914063-118.914063c13.785156 12.066406 31.753906 19.414063 52.605469 20.199219 51.601563 1.9375 103.382813 1.886718 154.984375.027344 46.671875-1.6875 80.445312-36.230469 81.902344-82.902344 1.554687-49.554688 1.554687-99.238282 0-148.792969-.664063-21.53125-8.222656-40.476563-20.753906-54.8125l116.957031 116.957031c.460937 58.917969-2.4375 117.859375-8.714844 176.699219zm0 0" fill="url(#f)"/>
			<path d="m316.414062 200.558594c-14.992187-16.324219-36.503906-26.566406-60.414062-26.566406-45.289062 0-82.007812 36.71875-82.007812 82.007812 0 23.910156 10.242187 45.421875 26.566406 60.414062l189.738281 189.738282c10.042969-.875 20.085937-1.847656 30.121094-2.917969 43.667969-4.660156 78.15625-39.148437 82.816406-82.816406 1.070313-10.035157 2.042969-20.078125 2.917969-30.121094zm0 0" fill="url(#g)"/>
			<path d="m511.007812 311.152344-152.703124-152.699219c-3.5625-4.675781-9.175782-7.710937-15.507813-7.710937-10.773437 0-19.511719 8.734374-19.511719 19.511718 0 6.332032 3.035156 11.945313 7.710938 15.507813l177.28125 177.285156c1.203125-17.292969 2.113281-34.59375 2.730468-51.894531zm0 0" fill="url(#h)"/>
			<path d="m95.089844 193.902344c1.066406-7.53125 1.878906-15.105469 3.234375-22.582032 7.683593-42.347656 37.664062-71.160156 80.53125-72.636718 51.613281-1.773438 103.382812-1.867188 154.988281-.007813 46.65625 1.679688 80.445312 36.226563 81.902344 82.898438 1.550781 49.558593 1.550781 99.238281 0 148.796875-1.457032 46.671875-35.234375 81.214844-81.898438 82.898437-51.605468 1.863281-103.386718 1.910157-154.988281-.027343-46.664063-1.753907-78.921875-36.378907-82.042969-83.121094-.269531-4.042969-1.136718-8.050782-1.726562-12.074219 0-41.382813 0-82.765625 0-124.144531zm160.953125 191.707031c23.617187 0 47.257812.707031 70.84375-.164063 36.980469-1.371093 59.726562-23.441406 60.589843-60.386718 1.070313-46.035156 1.070313-92.132813 0-138.171875-.863281-36.9375-23.625-59.523438-60.589843-60.308594-46.917969-.992187-93.886719-.984375-140.804688 0-36.683593.769531-59.496093 22.898437-60.492187 59.429687-1.265625 46.617188-1.265625 93.316407 0 139.933594.996094 36.527344 23.808594 58.144532 60.496094 59.503906 23.289062.867188 46.636718.164063 69.957031.164063zm0 0" fill="url(#i)"/>
			<g fill="#fff">
				<path d="m95.089844 193.902344c1.066406-7.53125 1.878906-15.105469 3.234375-22.582032 7.683593-42.347656 37.664062-71.160156 80.53125-72.636718 51.613281-1.773438 103.382812-1.867188 154.988281-.007813 46.65625 1.679688 80.445312 36.226563 81.902344 82.898438 1.550781 49.558593 1.550781 99.238281 0 148.796875-1.457032 46.671875-35.234375 81.214844-81.898438 82.898437-51.605468 1.863281-103.386718 1.910157-154.988281-.027343-46.664063-1.753907-78.921875-36.378907-82.042969-83.121094-.269531-4.042969-1.136718-8.050782-1.726562-12.074219 0-41.382813 0-82.765625 0-124.144531zm160.953125 191.707031c23.617187 0 47.257812.707031 70.84375-.164063 36.980469-1.371093 59.726562-23.441406 60.589843-60.386718 1.070313-46.035156 1.070313-92.132813 0-138.171875-.863281-36.9375-23.625-59.523438-60.589843-60.308594-46.917969-.992187-93.886719-.984375-140.804688 0-36.683593.769531-59.496093 22.898437-60.492187 59.429687-1.265625 46.617188-1.265625 93.316407 0 139.933594.996094 36.527344 23.808594 58.144532 60.496094 59.503906 23.289062.867188 46.636718.164063 69.957031.164063zm0 0"/>
				<path d="m256 173.996094c-45.289062 0-82.007812 36.714844-82.007812 82.003906 0 45.292969 36.71875 82.007812 82.007812 82.007812 45.292969 0 82.007812-36.714843 82.007812-82.007812 0-45.289062-36.714843-82.003906-82.007812-82.003906zm0 135.777344c-29.699219 0-53.773438-24.074219-53.773438-53.773438s24.074219-53.773438 53.773438-53.773438 53.773438 24.074219 53.773438 53.773438-24.074219 53.773438-53.773438 53.773438zm0 0"/>
				<path d="m362.304688 170.253906c0 10.773438-8.734376 19.507813-19.507813 19.507813s-19.511719-8.734375-19.511719-19.507813c0-10.777344 8.738282-19.511718 19.511719-19.511718s19.507813 8.734374 19.507813 19.511718zm0 0"/>
			</g>
		</symbol>
		<symbol id="pinterest" viewBox="0 0 18 18">
			<g id="Layer_2" data-name="Layer 2">
				<g id="Layer_1-2" data-name="Layer 1">
					<g>
						<path d="M18,9A9,9,0,1,1,9,0a9.00072,9.00072,0,0,1,9,9Z" fill="#cc2028"/>
						<path d="M9.726,12.052a3.03519,3.03519,0,0,1-1.499-.715c-.294,1.539-.652,3.014-1.714,3.784-.327-2.326.481-4.073.857-5.926-.64-1.079.077-3.249,1.428-2.714,1.662.657-1.44,4.009.643,4.427,2.174.437,3.061-3.772,1.713-5.141C9.206,3.79,5.483,5.722,5.942,8.552c.111.692.826.902.285,1.856-1.246-.276-1.619-1.26-1.571-2.57A4.19488,4.19488,0,0,1,8.44,3.982c2.349-.263,4.552.862,4.856,3.071.343,2.493-1.059,5.192-3.57,4.999Z" fill="#f2f2f2"/>
					</g>
				</g>
			</g>
		</symbol>
		<symbol id="twitter" viewBox="0 0 18 18">
			<g id="Layer_2" data-name="Layer 2">
				<g id="Layer_1-2" data-name="Layer 1">
					<g>
						<path d="M18,9A9,9,0,1,1,9,0a9.00072,9.00072,0,0,1,9,9Z" fill="#5fa9dd"/>
						<path d="M14.512,6.468a4.304,4.304,0,0,1-1.235.339,2.16357,2.16357,0,0,0,.946-1.19,4.34449,4.34449,0,0,1-1.366.522A2.15331,2.15331,0,0,0,9.191,8.102,6.10665,6.10665,0,0,1,4.757,5.854a2.15613,2.15613,0,0,0,.665,2.873,2.12755,2.12755,0,0,1-.974-.27v.027a2.15308,2.15308,0,0,0,1.726,2.109,2.15861,2.15861,0,0,1-.971.038,2.15365,2.15365,0,0,0,2.01,1.494,4.31553,4.31553,0,0,1-2.672.92,4.12205,4.12205,0,0,1-.513-.03,6.11716,6.11716,0,0,0,9.418-5.154c0-.093-.002-.186-.006-.278a4.40448,4.40448,0,0,0,1.072-1.115Z" fill="#f2f2f2"/>
					</g>
				</g>
			</g>
		</symbol>
</svg>

